<?xml version="1.0" encoding="utf-8"?>
<!-- Generator: Adobe Illustrator 23.0.3, SVG Export Plug-In . SVG Version: 6.00 Build 0)  -->
<svg version="1.1" id="Layer_1" xmlns="http://www.w3.org/2000/svg" xmlns:xlink="http://www.w3.org/1999/xlink" x="0px" y="0px"
	 viewBox="0 0 1000 1000" style="enable-background:new 0 0 1000 1000;" xml:space="preserve">
<style type="text/css">
	.st0{fill:#D71920;}
	.st1{fill:#FDB913;}
	.st2{fill:#008FD5;}
	.st3{fill:#E4368E;}
	.st4{fill:#FFFFFF;}
	.st5{fill:#231F20;}
	.st6{fill-rule:evenodd;clip-rule:evenodd;fill:#221E1F;}
	.st7{filter:url(#Adobe_OpacityMaskFilter);}
	.st8{fill-rule:evenodd;clip-rule:evenodd;fill:#FFFFFF;}
	.st9{mask:url(#mask-2_20_);fill-rule:evenodd;clip-rule:evenodd;fill:#221E1F;}
	.st10{filter:url(#Adobe_OpacityMaskFilter_1_);}
	.st11{mask:url(#mask-2_19_);fill-rule:evenodd;clip-rule:evenodd;fill:#221E1F;}
	.st12{filter:url(#Adobe_OpacityMaskFilter_2_);}
	.st13{mask:url(#mask-2_18_);fill-rule:evenodd;clip-rule:evenodd;fill:#221E1F;}
	.st14{filter:url(#Adobe_OpacityMaskFilter_3_);}
	.st15{mask:url(#mask-2_17_);fill-rule:evenodd;clip-rule:evenodd;fill:#221E1F;}
	.st16{filter:url(#Adobe_OpacityMaskFilter_4_);}
	.st17{mask:url(#mask-2_16_);fill-rule:evenodd;clip-rule:evenodd;fill:#221E1F;}
	.st18{filter:url(#Adobe_OpacityMaskFilter_5_);}
	.st19{mask:url(#mask-2_15_);fill-rule:evenodd;clip-rule:evenodd;fill:#221E1F;}
	.st20{filter:url(#Adobe_OpacityMaskFilter_6_);}
	.st21{mask:url(#mask-2_14_);fill-rule:evenodd;clip-rule:evenodd;fill:#221E1F;}
	.st22{filter:url(#Adobe_OpacityMaskFilter_7_);}
	.st23{mask:url(#mask-2_13_);fill-rule:evenodd;clip-rule:evenodd;fill:#221E1F;}
	.st24{filter:url(#Adobe_OpacityMaskFilter_8_);}
	.st25{mask:url(#mask-2_12_);fill-rule:evenodd;clip-rule:evenodd;fill:#221E1F;}
	.st26{filter:url(#Adobe_OpacityMaskFilter_9_);}
	.st27{mask:url(#mask-2_11_);}
	.st28{fill-rule:evenodd;clip-rule:evenodd;fill:#D61F26;}
	.st29{fill-rule:evenodd;clip-rule:evenodd;fill:#FAB715;}
	.st30{fill-rule:evenodd;clip-rule:evenodd;fill:#0E92CF;}
	.st31{fill-rule:evenodd;clip-rule:evenodd;fill:#E80E8A;}
	.st32{fill-rule:evenodd;clip-rule:evenodd;fill:#FEFEFE;}
</style>
<g>
	<g>
		<g id="Layer_1-2">
			<path class="st0" d="M158.7,385.9c-32.5,0-58.9,26.4-58.9,58.9s26.4,58.9,58.9,58.9s58.9-26.4,58.9-58.9S191.2,385.9,158.7,385.9
				C158.7,385.9,158.7,385.9,158.7,385.9"/>
			<path class="st1" d="M158.7,397.3c-26.2,0-47.4,21.2-47.4,47.4c0,26.2,21.2,47.4,47.4,47.4s47.4-21.2,47.4-47.4
				C206.1,418.5,184.9,397.3,158.7,397.3"/>
			<path class="st2" d="M158.7,409.4c-19.5,0-35.3,15.8-35.3,35.3c0,19.5,15.8,35.3,35.3,35.3s35.3-15.8,35.3-35.3l0,0
				C194,425.2,178.2,409.4,158.7,409.4"/>
			<path class="st3" d="M158.7,421c-13.1,0-23.7,10.6-23.7,23.7c0,13.1,10.6,23.7,23.7,23.7c13.1,0,23.7-10.6,23.7-23.7
				C182.4,431.7,171.8,421,158.7,421"/>
			<path class="st4" d="M158.7,456.4c-6.5,0.1-11.9-5.1-12-11.6c-0.1-6.5,5.1-11.9,11.6-12c6.5-0.1,11.9,5.1,12,11.6
				c0,0.1,0,0.3,0,0.4C170.2,451.1,165.1,456.3,158.7,456.4"/>
			<path class="st5" d="M674.3,386.1H687v14.6h-12.6V386.1z M728,386.1h12.6v14.6H728V386.1z M313,386.1h12.6v14.6H313V386.1z
				 M291.7,386.1h12.6v14.6h-12.6V386.1z M653,386.1h12.6v14.6H653V386.1z M405.8,386.1h12.6v14.6h-12.6V386.1z M587.7,487.7h12.6
				v14.6h-12.6V487.7z M459.2,450.5c0,8.8-7.2,15.9-15.9,15.9h-8.9c-8.8,0-15.9-7.1-15.9-15.9v-41.1h-12.6v41.1
				c0,8.8-7.2,15.9-15.9,15.9H381c-8.8,0-15.9-7.1-15.9-15.9v-41.1h-12.6v41.1c0,8.8-7.2,15.9-15.9,15.9h-54.8
				c-13.5,0-24.4-10.9-24.4-24.4c0-13.5,10.9-24.4,24.4-24.4v-12.6c-20.4-0.8-37.6,15.2-38.4,35.6c-0.8,20.4,15.2,37.6,35.6,38.4
				c0.9,0,1.9,0,2.8,0h54.8c8.7,0,16.9-4,22.2-10.8c5.4,6.8,13.6,10.8,22.2,10.8h8.9c8.7,0,16.9-4,22.2-10.8
				c5.4,6.8,13.6,10.8,22.2,10.8h8.9c15.8,0,28.5-12.8,28.5-28.5v-41h-12.6V450.5z M459.2,487.7h12.6v14.6h-12.6V487.7z
				 M863.1,404.9v12.6c13.5,0,24.4,10.9,24.4,24.4c0,13.5-10.9,24.4-24.4,24.4c-13.5,0-24.4-10.9-24.4-24.4v-32.5h-12.4v41.1
				c-0.5,8.8-8.1,15.5-16.8,15c-8.1-0.5-14.5-6.9-15-15v-41.2h-12.6v41.1c0,8.8-7.1,15.9-15.9,15.9h-9.2c-8.8,0-15.9-7.1-15.9-15.9
				v-41.1h-12.6v41.1c0,8.8-7.2,15.9-15.9,15.9h-9.3c-8.8,0-15.9-7.1-15.9-15.9v-41.1h-12.6v41.1c0,8.8-7.2,15.9-16,15.9
				c-0.1,0-0.2,0-0.3,0h-10.8V442c0-10.8-4.7-21.1-12.9-28.1l-8.8,9c5.8,4.6,9.3,11.6,9.3,19.1v37c0,9.4-8,13.7-15.9,13.7v12.6
				c16.3,0,28.5-10.8,28.5-26.3h10.8c8.7,0,16.9-4,22.2-10.8c5.4,6.8,13.6,10.8,22.2,10.8h9.3c8.7,0,16.9-4,22.2-10.8
				c5.4,6.8,13.6,10.8,22.2,10.8h9.2c8.7,0,16.9-4,22.2-10.8c9.8,12.3,27.8,14.2,40,4.4c2.6-2.1,4.7-4.5,6.5-7.3
				c12.9,15.8,36.2,18.1,52,5.2c15.8-12.9,18.1-36.2,5.2-52c-7-8.6-17.5-13.5-28.5-13.6 M587.8,450.5c0,8.8-7.1,15.9-15.9,15.9h-4.7
				V442c0-20.5-16.5-37.1-37-37.1c-20.5,0-37.1,16.5-37.1,37c0,20.5,16.5,37.1,37,37.1c0,0,0.1,0,0.1,0h24.4c0,9.4-8,13.7-15.9,13.7
				h-6.3v12.6h6.1c16.3,0,28.5-10.8,28.5-26.3h4.7c15.8,0,28.5-12.8,28.5-28.5c0,0,0,0,0,0v-41h-12.5V450.5z M554.5,461.8v4.7h-24.4
				c-13.5,0-24.4-10.9-24.4-24.4c0-13.5,10.9-24.4,24.4-24.4s24.4,10.9,24.4,24.4l0,0V461.8z M437.9,487.7h12.6v14.6h-12.6V487.7z"
				/>
		</g>
	</g>
	<g>
		<g id="Artboard" transform="translate(-493.000000, -286.000000)">
			<g id="Centrepoint-logo" transform="translate(493.000000, 285.000000)">
				<path id="Fill-1" class="st6" d="M188.7,608.1c3-11.6,11.6-18.8,22.4-18.8c10.7,0,18.7,6.9,21.8,18.8H188.7z M210.7,576.5
					c-10,0-18.8,3.9-25.8,12c-6.4,7.3-9.8,16.3-9.8,26.6c0,9.7,3.7,19.8,10.3,27c6.8,7.6,15.3,11.4,25.6,11.4
					c15.1,0,26.9-8.7,33.4-25h-14c-4,7.6-11.1,11.9-19.3,11.9c-11.4,0-20.6-8.1-22.7-20.5h58.3v-2c0-10-1.8-17.8-5.9-24.4
					C233.8,582.6,222.9,576.5,210.7,576.5z"/>
				<path id="Fill-3" class="st6" d="M286.1,577.5c-8,0-14.1,2.9-19.3,9.5v-8.3h-12v72.8h12.5v-33.1c0-18.9,4.4-28.3,17.6-28.3
					c11.5,0,16.8,7.4,16.8,22.7v38.6h12.5V610C314.2,588.9,304,577.5,286.1,577.5"/>
				<path id="Fill-5" class="st6" d="M134.8,589.5c9.5,0,16.3,4.4,20.7,13.3h13.7c-5.4-16.9-17.8-26.3-33.4-26.3
					c-10.2,0-19.2,4.2-26.3,12.2c-6.4,7.3-9.8,16.3-9.8,26.5c0,9.7,3.7,19.8,10.3,27c6.8,7.6,15.2,11.3,25.4,11.3
					c16.4,0,28-9.3,33.8-26.8h-13.7c-4,8.8-11.3,13.8-20.1,13.8c-12.9,0-22.8-10.9-22.8-25.5C112.6,600.4,122.7,589.5,134.8,589.5"
					/>
				<defs>
					<filter id="Adobe_OpacityMaskFilter" filterUnits="userSpaceOnUse" x="641.9" y="578.7" width="12.4" height="72.8">
						<feColorMatrix  type="matrix" values="1 0 0 0 0  0 1 0 0 0  0 0 1 0 0  0 0 0 1 0"/>
					</filter>
				</defs>
				<mask maskUnits="userSpaceOnUse" x="641.9" y="578.7" width="12.4" height="72.8" id="mask-2_20_">
					<g class="st7">
						<polygon id="path-1_20_" class="st8" points="99.8,675.1 900.2,675.1 900.2,552.5 99.8,552.5 						"/>
					</g>
				</mask>
				<polygon id="Fill-7" class="st9" points="641.9,651.5 654.3,651.5 654.3,578.7 641.9,578.7 				"/>
				<defs>
					<filter id="Adobe_OpacityMaskFilter_1_" filterUnits="userSpaceOnUse" x="641.9" y="555.1" width="12.4" height="15.1">
						<feColorMatrix  type="matrix" values="1 0 0 0 0  0 1 0 0 0  0 0 1 0 0  0 0 0 1 0"/>
					</filter>
				</defs>
				<mask maskUnits="userSpaceOnUse" x="641.9" y="555.1" width="12.4" height="15.1" id="mask-2_19_">
					<g class="st10">
						<polygon id="path-1_19_" class="st8" points="99.8,675.1 900.2,675.1 900.2,552.5 99.8,552.5 						"/>
					</g>
				</mask>
				<polygon id="Fill-9" class="st11" points="641.9,570.2 654.3,570.2 654.3,555.1 641.9,555.1 				"/>
				<defs>
					<filter id="Adobe_OpacityMaskFilter_2_" filterUnits="userSpaceOnUse" x="669.1" y="577.5" width="59.4" height="74">
						<feColorMatrix  type="matrix" values="1 0 0 0 0  0 1 0 0 0  0 0 1 0 0  0 0 0 1 0"/>
					</filter>
				</defs>
				<mask maskUnits="userSpaceOnUse" x="669.1" y="577.5" width="59.4" height="74" id="mask-2_18_">
					<g class="st12">
						<polygon id="path-1_18_" class="st8" points="99.8,675.1 900.2,675.1 900.2,552.5 99.8,552.5 						"/>
					</g>
				</mask>
				<path id="Fill-10" class="st13" d="M700.4,577.5c-8,0-14,2.9-19.3,9.5v-8.3h-12v72.8h12.5v-33.1c0-18.9,4.4-28.3,17.6-28.3
					c11.5,0,16.8,7.4,16.8,22.7v38.6h12.5V610C728.5,588.9,718.3,577.5,700.4,577.5"/>
				<defs>
					<filter id="Adobe_OpacityMaskFilter_3_" filterUnits="userSpaceOnUse" x="398.6" y="576.5" width="71.4" height="76.9">
						<feColorMatrix  type="matrix" values="1 0 0 0 0  0 1 0 0 0  0 0 1 0 0  0 0 0 1 0"/>
					</filter>
				</defs>
				<mask maskUnits="userSpaceOnUse" x="398.6" y="576.5" width="71.4" height="76.9" id="mask-2_17_">
					<g class="st14">
						<polygon id="path-1_17_" class="st8" points="99.8,675.1 900.2,675.1 900.2,552.5 99.8,552.5 						"/>
					</g>
				</mask>
				<path id="Fill-11" class="st15" d="M412.1,608.1c3-11.6,11.6-18.8,22.4-18.8c10.7,0,18.7,6.9,21.8,18.8H412.1z M434.2,576.5
					c-10.1,0-18.8,3.9-25.8,12c-6.4,7.3-9.8,16.3-9.8,26.6c0,9.7,3.7,19.8,10.3,27c6.8,7.6,15.3,11.4,25.5,11.4
					c15.1,0,26.9-8.7,33.4-25h-14c-4,7.6-11.1,11.9-19.3,11.9c-11.3,0-20.6-8.1-22.7-20.5H470v-2c0-10-1.8-17.8-5.9-24.4
					C457.2,582.6,446.3,576.5,434.2,576.5L434.2,576.5z"/>
				<defs>
					<filter id="Adobe_OpacityMaskFilter_4_" filterUnits="userSpaceOnUse" x="559.8" y="576.4" width="71.4" height="77.1">
						<feColorMatrix  type="matrix" values="1 0 0 0 0  0 1 0 0 0  0 0 1 0 0  0 0 0 1 0"/>
					</filter>
				</defs>
				<mask maskUnits="userSpaceOnUse" x="559.8" y="576.4" width="71.4" height="77.1" id="mask-2_16_">
					<g class="st16">
						<polygon id="path-1_16_" class="st8" points="99.8,675.1 900.2,675.1 900.2,552.5 99.8,552.5 						"/>
					</g>
				</mask>
				<path id="Fill-12" class="st17" d="M595.6,640.5c-13,0-22.9-10.9-22.9-25.5c0-15,10.3-25.6,22.8-25.6
					c12.8,0,22.8,10.4,22.8,25.5C618.3,629.8,608.3,640.5,595.6,640.5 M595,576.4c-9.4,0-18.4,4.4-25.4,12.2
					c-6.4,7.2-9.8,16.3-9.8,26.6c0,9.7,3.8,19.8,10.3,27c6.8,7.6,15.4,11.3,25.5,11.3c10,0,19-4.3,25.9-12.3c6.1-7.1,9.6-17,9.6-27
					c0-9.8-3.7-19.3-10.5-26.6C613.7,580.2,605,576.4,595,576.4"/>
				<defs>
					<filter id="Adobe_OpacityMaskFilter_5_" filterUnits="userSpaceOnUse" x="480.4" y="577.1" width="72.2" height="98">
						<feColorMatrix  type="matrix" values="1 0 0 0 0  0 1 0 0 0  0 0 1 0 0  0 0 0 1 0"/>
					</filter>
				</defs>
				<mask maskUnits="userSpaceOnUse" x="480.4" y="577.1" width="72.2" height="98" id="mask-2_15_">
					<g class="st18">
						<polygon id="path-1_15_" class="st8" points="99.8,675.1 900.2,675.1 900.2,552.5 99.8,552.5 						"/>
					</g>
				</mask>
				<path id="Fill-13" class="st19" d="M515.8,640.6c-12.4,0-23.3-11.2-23.3-26c0-13.6,11.1-25.1,23.2-25.1c13,0,23.8,10.8,23.8,26
					C539.6,629.8,528.6,640.6,515.8,640.6 M516.2,577.1c-8.7,0-16.7,3.5-23.2,10.6v-8.9h-12.6v96.4h12.5v-32.4
					c6.7,7.2,14.7,10.8,24.1,10.8c10.5,0,18.6-3.6,25.5-11.3c6.5-7.1,10.1-16.5,10.1-26.7C552.6,593.6,537.2,577.1,516.2,577.1"/>
				<defs>
					<filter id="Adobe_OpacityMaskFilter_6_" filterUnits="userSpaceOnUse" x="365.3" y="577.5" width="28.1" height="74">
						<feColorMatrix  type="matrix" values="1 0 0 0 0  0 1 0 0 0  0 0 1 0 0  0 0 0 1 0"/>
					</filter>
				</defs>
				<mask maskUnits="userSpaceOnUse" x="365.3" y="577.5" width="28.1" height="74" id="mask-2_14_">
					<g class="st20">
						<polygon id="path-1_14_" class="st8" points="99.8,675.1 900.2,675.1 900.2,552.5 99.8,552.5 						"/>
					</g>
				</mask>
				<path id="Fill-14" class="st21" d="M377.1,587.1v-8.4h-11.7v72.8h12.5V611c0-12.7,3.9-18.8,15.6-19.8v-13.7
					C386.4,577.6,381.2,580.6,377.1,587.1"/>
				<defs>
					<filter id="Adobe_OpacityMaskFilter_7_" filterUnits="userSpaceOnUse" x="321.7" y="555.1" width="32" height="98.6">
						<feColorMatrix  type="matrix" values="1 0 0 0 0  0 1 0 0 0  0 0 1 0 0  0 0 0 1 0"/>
					</filter>
				</defs>
				<mask maskUnits="userSpaceOnUse" x="321.7" y="555.1" width="32" height="98.6" id="mask-2_13_">
					<g class="st22">
						<polygon id="path-1_13_" class="st8" points="99.8,675.1 900.2,675.1 900.2,552.5 99.8,552.5 						"/>
					</g>
				</mask>
				<path id="Fill-15" class="st23" d="M343.9,590.2l9.8,0.4v-11.9h-9.8v-23.6h-12.4v23.6h-9.8v11.9h9.8v40.2
					c1,10.9,7.8,19.4,17.7,22.8l4.2-12.4c-5.4-1.8-9.6-6.1-9.6-13.3L343.9,590.2z"/>
				<defs>
					<filter id="Adobe_OpacityMaskFilter_8_" filterUnits="userSpaceOnUse" x="734.7" y="555.1" width="31.9" height="98.6">
						<feColorMatrix  type="matrix" values="1 0 0 0 0  0 1 0 0 0  0 0 1 0 0  0 0 0 1 0"/>
					</filter>
				</defs>
				<mask maskUnits="userSpaceOnUse" x="734.7" y="555.1" width="31.9" height="98.6" id="mask-2_12_">
					<g class="st24">
						<polygon id="path-1_12_" class="st8" points="99.8,675.1 900.2,675.1 900.2,552.5 99.8,552.5 						"/>
					</g>
				</mask>
				<path id="Fill-16" class="st25" d="M756.9,590.2l9.8,0.4v-11.9h-9.8v-23.6h-12.4v23.6h-9.8v11.9h9.8v40.2
					c1,10.9,7.8,19.4,17.7,22.8l4.3-12.4c-5.4-1.8-9.7-6.1-9.7-13.3L756.9,590.2z"/>
				<defs>
					<filter id="Adobe_OpacityMaskFilter_9_" filterUnits="userSpaceOnUse" x="791.8" y="556.9" width="108.5" height="114.1">
						<feColorMatrix  type="matrix" values="1 0 0 0 0  0 1 0 0 0  0 0 1 0 0  0 0 0 1 0"/>
					</filter>
				</defs>
				<mask maskUnits="userSpaceOnUse" x="791.8" y="556.9" width="108.5" height="114.1" id="mask-2_11_">
					<g class="st26">
						<polygon id="path-1_11_" class="st8" points="99.8,675.1 900.2,675.1 900.2,552.5 99.8,552.5 						"/>
					</g>
				</mask>
				<g id="Group" class="st27">
					<g transform="translate(468.000000, 3.000000)">
						<path id="Fill-17" class="st28" d="M378,553.9c-30,0-54.2,25.5-54.2,57c0,31.5,24.3,57.1,54.2,57.1
							c29.9,0,54.2-25.5,54.2-57.1C432.2,579.5,407.9,553.9,378,553.9"/>
						<path id="Fill-18" class="st29" d="M378,564.9c-24.1,0-43.7,20.6-43.7,46c0,25.4,19.6,45.9,43.7,45.9
							c24.1,0,43.7-20.6,43.7-45.9C421.7,585.5,402.1,564.9,378,564.9"/>
						<path id="Fill-19" class="st30" d="M378,576.7c-18,0-32.5,15.3-32.5,34.2c0,18.9,14.5,34.2,32.5,34.2
							c18,0,32.5-15.3,32.5-34.2C410.5,592,395.9,576.7,378,576.7"/>
						<path id="Fill-20" class="st31" d="M378,588c-12.1,0-21.8,10.3-21.8,23c0,12.6,9.7,22.9,21.8,22.9c12.1,0,21.8-10.3,21.8-22.9
							C399.8,598.3,390,588,378,588"/>
						<path id="Fill-21" class="st32" d="M378,622.4c-6,0-10.9-5.1-10.9-11.4c0-6.3,4.9-11.5,10.9-11.5c6,0,10.9,5.1,10.9,11.5
							C388.9,617.2,384,622.4,378,622.4"/>
					</g>
				</g>
			</g>
		</g>
	</g>
</g>
</svg>
