<?xml version="1.0" encoding="UTF-8"?>
<svg xmlns="http://www.w3.org/2000/svg" xmlns:xlink="http://www.w3.org/1999/xlink" width="497.88pt" height="328.44pt" viewBox="0 0 497.88 328.44" version="1.1">
<defs>
<clipPath id="clip1">
  <path d="M 236 0 L 497.878906 0 L 497.878906 328.441406 L 236 328.441406 Z M 236 0 "/>
</clipPath>
<clipPath id="clip2">
  <path d="M 0 0 L 240 0 L 240 328.441406 L 0 328.441406 Z M 0 0 "/>
</clipPath>
</defs>
<g id="surface1">
<g clip-path="url(#clip1)" clip-rule="nonzero">
<path style=" stroke:none;fill-rule:evenodd;fill:rgb(92.89856%,12.199402%,14.099121%);fill-opacity:1;" d="M 355.4375 222.601563 L 364.679688 199.921875 L 374.160156 176.640625 L 384.238281 153.121094 L 394.558594 129.359375 L 405.238281 105.480469 L 410.640625 93.601563 L 416.039063 81.71875 L 421.558594 69.960938 L 432.839844 46.679688 L 438.480469 35.160156 L 440.160156 31.679688 L 441.960938 28.078125 L 443.398438 25.199219 L 444.960938 22.4375 L 446.640625 19.800781 L 447.601563 18.480469 L 448.558594 17.277344 L 450.121094 15.597656 L 451.800781 14.039063 L 452.757813 13.320313 L 453.71875 12.597656 L 454.800781 12 L 455.878906 11.398438 L 459.839844 10.199219 L 463.800781 8.878906 L 467.640625 7.320313 L 471.601563 5.878906 L 476.519531 3.960938 L 478.917969 3.117188 L 481.4375 2.277344 L 482.039063 2.039063 L 483.601563 1.441406 L 485.277344 0.960938 L 486.960938 0.71875 L 488.757813 0.71875 L 490.4375 0.839844 L 492 1.199219 L 493.558594 1.679688 L 494.277344 2.039063 L 494.878906 2.398438 L 495.480469 2.878906 L 495.960938 3.359375 L 496.4375 3.839844 L 496.917969 4.320313 L 497.160156 5.039063 L 497.519531 5.640625 L 497.757813 6.359375 L 497.878906 7.078125 L 497.640625 9.71875 L 497.398438 12.359375 L 496.4375 17.640625 L 495.359375 22.800781 L 494.160156 28.078125 L 493.320313 31.679688 L 490.679688 43.320313 L 488.398438 53.761719 L 486.121094 63.960938 L 481.4375 86.398438 L 461.519531 185.160156 L 441 287.039063 L 438.71875 298.199219 L 437.277344 305.519531 L 435.238281 315.839844 L 433.917969 323.398438 L 433.679688 324.121094 L 433.4375 324.71875 L 433.199219 325.320313 L 432.71875 325.921875 L 432.359375 326.398438 L 431.878906 326.761719 L 431.277344 327.121094 L 430.800781 327.480469 L 429.71875 327.960938 L 428.519531 328.199219 L 427.4375 328.320313 L 426.238281 328.320313 L 425.039063 328.082031 L 423.839844 327.71875 L 422.640625 327.238281 L 421.679688 326.519531 L 420.71875 325.679688 L 419.878906 324.601563 L 417.480469 321.839844 L 414.960938 319.082031 L 412.320313 316.441406 L 409.558594 314.039063 L 405.480469 310.679688 L 403.320313 309.121094 L 401.039063 307.679688 L 400.078125 306.839844 L 399.359375 305.878906 L 398.640625 304.800781 L 398.039063 303.71875 L 397.558594 302.640625 L 397.199219 301.441406 L 397.078125 300.238281 L 396.960938 299.039063 L 396.960938 297.359375 L 397.320313 295.679688 L 397.558594 293.039063 L 397.800781 290.398438 L 398.277344 287.761719 L 398.640625 284.878906 L 399.71875 277.800781 L 405.601563 244.800781 L 413.519531 201.121094 L 420.839844 160.320313 L 423.71875 145.199219 L 425.398438 135.960938 L 430.917969 108.480469 L 433.679688 94.800781 L 436.558594 81.121094 L 436.4375 81.359375 L 426.359375 102.601563 L 416.398438 123.960938 L 406.800781 145.558594 L 397.320313 167.160156 L 388.078125 188.878906 L 378.960938 210.601563 L 370.199219 232.558594 L 361.558594 254.519531 L 353.039063 276.480469 L 352.320313 278.398438 L 351.480469 280.320313 L 350.160156 284.28125 L 348.71875 288.238281 L 348 290.160156 L 347.160156 291.960938 L 345.960938 294.359375 L 344.640625 296.640625 L 343.4375 297.601563 L 342 298.320313 L 340.679688 298.679688 L 339.359375 298.679688 L 338.039063 298.558594 L 336.839844 298.082031 L 335.757813 297.480469 L 334.800781 296.761719 L 333.960938 295.800781 L 333.238281 294.601563 L 331.800781 292.441406 L 330.238281 290.160156 L 326.878906 286.082031 L 325.679688 284.640625 L 324.359375 283.320313 L 323.039063 282.121094 L 321.601563 280.921875 L 320.160156 279.359375 L 318.839844 277.800781 L 317.640625 276.121094 L 316.4375 274.320313 L 315.480469 272.519531 L 314.640625 270.71875 L 313.800781 268.800781 L 313.078125 266.878906 L 312.359375 264.480469 L 311.757813 261.960938 L 311.277344 259.441406 L 310.917969 256.921875 L 310.679688 254.398438 L 310.558594 251.761719 L 310.558594 246.601563 L 310.4375 240.960938 L 310.4375 229.800781 L 310.679688 218.519531 L 311.039063 212.878906 L 311.640625 201.71875 L 312.480469 190.4375 L 313.558594 179.28125 L 314.640625 168 L 315.71875 156.839844 L 317.160156 143.160156 L 318.480469 129.480469 L 319.558594 115.800781 L 320.039063 108.960938 L 320.398438 102.121094 L 321 93.960938 L 319.800781 97.320313 L 318.238281 102.480469 L 313.4375 117.359375 L 307.320313 137.28125 L 300 160.679688 L 284.039063 212.160156 L 269.277344 260.28125 L 256.679688 301.199219 L 255.71875 303.601563 L 254.640625 305.878906 L 253.800781 307.558594 L 252.839844 309.121094 L 251.761719 310.558594 L 250.4375 312 L 249.960938 312.480469 L 249.359375 312.960938 L 248.761719 313.320313 L 248.160156 313.679688 L 246.839844 314.160156 L 245.519531 314.398438 L 243.601563 314.398438 L 242.640625 314.28125 L 241.800781 313.921875 L 240.839844 313.558594 L 240 313.199219 L 239.277344 312.601563 L 238.558594 312 L 237.839844 311.160156 L 237.117188 310.199219 L 236.640625 309.121094 L 236.277344 308.039063 L 236.160156 306.71875 L 236.160156 304.320313 L 236.277344 303 L 236.640625 300.601563 L 237.117188 298.082031 L 237.480469 296.640625 L 238.320313 294 L 240.480469 286.921875 L 248.277344 262.082031 L 272.761719 184.199219 L 299.640625 98.878906 L 310.4375 64.679688 L 317.519531 42 L 318.839844 38.277344 L 320.039063 34.558594 L 321.121094 31.078125 L 321.71875 29.398438 L 322.4375 27.839844 L 322.917969 26.519531 L 323.640625 25.199219 L 324.238281 24 L 325.078125 22.800781 L 325.917969 21.71875 L 326.878906 20.640625 L 327.960938 19.558594 L 329.160156 18.597656 L 330.960938 17.519531 L 333 16.4375 L 334.917969 15.480469 L 336.960938 14.640625 L 339 13.917969 L 341.039063 13.078125 L 345.238281 11.640625 L 348.359375 10.558594 L 351.480469 9.359375 L 354.480469 8.039063 L 357.480469 6.597656 L 357.71875 6.480469 L 360.839844 5.398438 L 364.800781 4.320313 L 366.121094 4.078125 L 367.4375 3.960938 L 368.640625 3.839844 L 369.960938 3.960938 L 371.160156 4.078125 L 372 4.320313 L 373.4375 5.039063 L 374.160156 5.398438 L 375.601563 6.839844 L 375.960938 7.441406 L 376.4375 8.640625 L 376.800781 10.078125 L 377.039063 11.640625 L 377.039063 14.878906 L 376.917969 16.4375 L 376.917969 17.878906 L 376.679688 22.558594 L 376.4375 27.117188 L 376.078125 31.800781 L 375.601563 36.359375 L 374.640625 45.601563 L 373.558594 54.839844 L 372.121094 66.960938 L 370.558594 79.078125 L 368.878906 91.078125 L 363.839844 127.441406 L 362.277344 139.441406 L 360.71875 151.558594 L 359.398438 163.679688 L 358.558594 171 L 357.839844 178.441406 L 357.238281 185.761719 L 356.757813 193.078125 L 356.277344 200.519531 L 355.917969 207.839844 L 355.679688 215.28125 L 355.4375 222.601563 "/>
</g>
<g clip-path="url(#clip2)" clip-rule="nonzero">
<path style=" stroke:none;fill-rule:evenodd;fill:rgb(92.89856%,12.199402%,14.099121%);fill-opacity:1;" d="M 90.480469 140.878906 L 97.558594 139.441406 L 115.4375 135.839844 L 133.320313 132.359375 L 140.519531 130.921875 L 145.679688 130.078125 L 147.601563 125.039063 L 150 118.921875 L 155.878906 104.398438 L 162.71875 87.839844 L 169.921875 70.320313 L 183.238281 38.160156 L 188.277344 26.039063 L 191.640625 18.359375 L 192.480469 16.558594 L 193.4375 14.878906 L 194.160156 14.160156 L 194.761719 13.320313 L 195.480469 12.71875 L 196.199219 12 L 197.039063 11.398438 L 198.960938 10.4375 L 200.039063 10.078125 L 202.921875 9.480469 L 205.800781 8.640625 L 209.398438 7.558594 L 213 6.238281 L 214.558594 5.640625 L 217.800781 4.441406 L 221.160156 3.238281 L 224.519531 2.039063 L 225.601563 1.679688 L 227.519531 1.078125 L 229.558594 0.597656 L 230.519531 0.359375 L 231.359375 0.117188 L 232.320313 0 L 233.277344 0 L 234.238281 0.117188 L 235.078125 0.359375 L 236.039063 0.71875 L 236.761719 1.078125 L 237.359375 1.558594 L 237.960938 2.039063 L 238.4375 2.757813 L 238.800781 3.480469 L 239.160156 5.039063 L 239.160156 8.160156 L 238.917969 9.480469 L 238.679688 10.917969 L 238.320313 12.359375 L 236.160156 18.238281 L 233.277344 26.039063 L 229.800781 35.277344 L 225.839844 45.71875 L 217.078125 68.160156 L 208.4375 90.238281 L 200.160156 111.121094 L 195.601563 122.878906 L 195.839844 122.761719 L 200.878906 122.28125 L 207.480469 121.558594 L 210.839844 121.320313 L 214.199219 121.078125 L 217.558594 121.078125 L 218.640625 121.199219 L 219.71875 121.441406 L 220.921875 121.679688 L 222 122.039063 L 222.960938 122.519531 L 223.800781 123 L 224.519531 123.601563 L 225.117188 124.320313 L 225.71875 125.160156 L 226.199219 126.121094 L 226.4375 127.199219 L 226.558594 128.28125 L 226.558594 129.359375 L 226.320313 130.800781 L 225.960938 132.121094 L 225.480469 133.441406 L 224.761719 134.640625 L 224.277344 135.601563 L 223.679688 136.441406 L 222.960938 137.160156 L 222.238281 137.761719 L 221.519531 138.480469 L 220.679688 139.078125 L 219 140.160156 L 217.320313 141.359375 L 216.601563 141.960938 L 215.761719 142.679688 L 214.199219 144.121094 L 212.761719 145.558594 L 211.4375 147.238281 L 210.117188 148.800781 L 208.199219 151.199219 L 206.398438 153.71875 L 204.601563 156.238281 L 202.679688 158.640625 L 201.839844 159.839844 L 201 160.921875 L 200.039063 162 L 198.960938 162.960938 L 196.921875 164.761719 L 194.640625 166.441406 L 192.601563 167.761719 L 190.4375 168.839844 L 188.277344 169.921875 L 186 170.878906 L 183.71875 171.71875 L 181.4375 172.441406 L 179.039063 173.039063 L 176.761719 173.519531 L 176.039063 173.640625 L 174.839844 176.878906 L 173.039063 182.039063 L 167.640625 197.039063 L 152.640625 239.160156 L 126 314.28125 L 124.078125 319.800781 L 123.601563 321.238281 L 122.878906 322.921875 L 122.398438 324.359375 L 121.800781 325.320313 L 121.199219 326.160156 L 120.601563 326.640625 L 120 327.121094 L 119.277344 327.601563 L 118.558594 327.960938 L 117.839844 328.199219 L 117.117188 328.320313 L 116.277344 328.441406 L 115.558594 328.320313 L 114.839844 328.320313 L 114.117188 328.082031 L 113.398438 327.839844 L 112.800781 327.480469 L 112.199219 327.238281 L 111.71875 326.761719 L 110.761719 325.921875 L 110.039063 325.199219 L 109.4375 324.359375 L 108.839844 323.519531 L 108.238281 322.800781 L 106.199219 320.398438 L 104.039063 318.238281 L 102.238281 316.558594 L 100.4375 315 L 96.71875 312 L 94.800781 310.199219 L 92.878906 308.398438 L 91.199219 306.359375 L 89.640625 304.320313 L 88.917969 303.121094 L 88.441406 301.921875 L 88.320313 301.199219 L 88.078125 300.359375 L 88.078125 299.519531 L 87.960938 298.800781 L 88.199219 297.238281 L 88.558594 295.800781 L 89.039063 294.238281 L 89.398438 292.679688 L 89.519531 292.199219 L 89.878906 291.121094 L 90.960938 287.640625 L 94.558594 276.359375 L 105.71875 242.519531 L 117.480469 206.878906 L 122.039063 193.320313 L 123.71875 188.398438 L 124.800781 185.160156 L 92.398438 192.238281 L 73.917969 196.199219 L 63.71875 198.480469 L 61.441406 204.71875 L 56.878906 216.960938 L 44.039063 252.121094 L 25.320313 302.640625 L 24.359375 304.800781 L 23.28125 306.839844 L 22.199219 308.519531 L 21 310.082031 L 19.558594 311.519531 L 18 312.839844 L 16.800781 313.441406 L 16.078125 313.921875 L 15.359375 314.398438 L 14.519531 314.640625 L 13.679688 314.878906 L 11.878906 314.878906 L 11.039063 314.761719 L 10.078125 314.519531 L 9.238281 314.160156 L 8.519531 313.800781 L 7.800781 313.320313 L 7.078125 312.71875 L 6.359375 311.878906 L 5.878906 310.921875 L 5.519531 309.960938 L 5.28125 309 L 5.039063 308.039063 L 5.039063 306.960938 L 4.917969 304.921875 L 5.160156 303 L 5.398438 301.320313 L 5.761719 299.761719 L 6.238281 298.199219 L 6.71875 296.519531 L 10.917969 284.519531 L 15.839844 270.359375 L 26.878906 239.878906 L 36.238281 213.960938 L 40.800781 201.601563 L 40.679688 201.601563 L 38.039063 201.121094 L 35.519531 200.398438 L 34.320313 199.921875 L 33.117188 199.4375 L 31.917969 198.839844 L 30.71875 198.238281 L 28.800781 196.921875 L 27 195.480469 L 24.117188 192.839844 L 22.917969 191.398438 L 21.71875 189.960938 L 19.320313 187.199219 L 17.640625 185.28125 L 16.199219 183.71875 L 15.480469 182.878906 L 14.640625 182.28125 L 13.917969 181.679688 L 13.078125 181.199219 L 12 180.71875 L 10.800781 180.238281 L 9.601563 179.878906 L 8.398438 179.398438 L 7.320313 179.039063 L 6.238281 178.441406 L 5.160156 177.839844 L 4.199219 177 L 3 175.558594 L 1.917969 174 L 1.4375 173.519531 L 1.078125 172.800781 L 0.71875 172.199219 L 0.359375 171.480469 L 0.238281 170.761719 L 0.117188 169.921875 L 0 169.199219 L 0.117188 168.480469 L 0.238281 167.761719 L 0.359375 167.160156 L 0.71875 166.441406 L 1.4375 165.238281 L 2.039063 164.761719 L 2.640625 164.398438 L 3.359375 163.921875 L 4.078125 163.679688 L 5.519531 162.960938 L 6.71875 162.480469 L 8.039063 162 L 15.117188 159.960938 L 22.078125 157.921875 L 25.078125 157.078125 L 43.078125 152.28125 L 52.199219 150 L 61.199219 147.71875 L 61.441406 147.601563 L 63.480469 142.558594 L 66.839844 134.039063 L 76.558594 109.441406 L 99.960938 51 L 112.679688 19.320313 L 112.679688 19.199219 L 112.921875 18.597656 L 114 16.558594 L 114.960938 14.640625 L 117.359375 11.039063 L 118.320313 9.960938 L 119.160156 9 L 120.117188 8.039063 L 121.199219 7.199219 L 122.160156 6.480469 L 123.359375 5.878906 L 124.4375 5.277344 L 125.761719 4.917969 L 126.960938 4.558594 L 128.277344 4.441406 L 129.480469 4.441406 L 130.679688 4.679688 L 131.761719 5.039063 L 132.839844 5.640625 L 133.800781 6.480469 L 134.160156 6.960938 L 134.640625 7.441406 L 135 8.519531 L 135.359375 9.480469 L 135.480469 10.558594 L 135.601563 11.640625 L 135.601563 12.839844 L 135.359375 14.039063 L 135.238281 15.238281 L 134.878906 16.4375 L 134.640625 17.398438 L 133.800781 20.160156 L 132.601563 23.160156 L 124.199219 44.28125 L 110.039063 79.800781 L 95.398438 116.761719 L 89.398438 131.640625 L 85.441406 141.960938 L 90.480469 140.878906 "/>
</g>
<path style=" stroke:none;fill-rule:evenodd;fill:rgb(92.89856%,12.199402%,14.099121%);fill-opacity:1;" d="M 212.878906 243 L 214.800781 241.199219 L 216 240.121094 L 217.078125 239.160156 L 219.71875 237.480469 L 220.921875 237 L 222.117188 236.519531 L 223.199219 236.398438 L 224.277344 236.398438 L 224.878906 236.519531 L 225.480469 236.761719 L 226.078125 237 L 226.558594 237.238281 L 227.039063 237.71875 L 227.519531 238.082031 L 227.878906 238.558594 L 228.238281 239.042969 L 228.601563 239.640625 L 228.71875 240.601563 L 228.960938 241.441406 L 228.960938 243.238281 L 228.839844 244.441406 L 228.480469 245.640625 L 228.117188 246.839844 L 227.761719 247.921875 L 226.4375 250.558594 L 224.878906 253.082031 L 222.960938 255.839844 L 221.039063 258.601563 L 219 261.121094 L 221.398438 267.601563 L 222 269.398438 L 222.238281 270.480469 L 222.601563 271.558594 L 222.71875 272.640625 L 222.839844 273.71875 L 222.839844 274.558594 L 222.71875 275.28125 L 222.480469 276.238281 L 222.117188 277.082031 L 221.640625 277.800781 L 221.039063 278.398438 L 220.4375 278.761719 L 219.960938 279.121094 L 219.359375 279.359375 L 218.761719 279.480469 L 218.160156 279.601563 L 217.558594 279.71875 L 216.960938 279.601563 L 216.238281 279.601563 L 215.519531 279.238281 L 214.800781 278.878906 L 214.078125 278.398438 L 213.480469 277.921875 L 212.398438 276.839844 L 212.039063 276.238281 L 211.078125 274.679688 L 210.359375 273.121094 L 209.640625 271.320313 L 208.078125 272.519531 L 206.519531 273.71875 L 204.960938 274.921875 L 203.277344 276 L 201.601563 276.960938 L 199.800781 277.800781 L 198 278.519531 L 196.199219 279.121094 L 194.039063 279.601563 L 191.878906 279.839844 L 189.960938 279.839844 L 188.160156 279.601563 L 186.359375 279.238281 L 184.558594 278.761719 L 182.761719 278.039063 L 181.199219 277.082031 L 179.640625 276.121094 L 178.199219 274.921875 L 177.601563 274.199219 L 176.878906 273.480469 L 175.679688 272.039063 L 174.601563 270.480469 L 173.761719 268.679688 L 173.277344 267.480469 L 172.921875 266.28125 L 172.558594 265.082031 L 172.199219 263.761719 L 172.078125 262.441406 L 171.960938 261.121094 L 171.839844 258.601563 L 171.960938 255.960938 L 172.199219 254.640625 L 172.4375 253.441406 L 173.039063 250.921875 L 173.878906 248.398438 L 174.601563 246.71875 L 175.4375 244.921875 L 176.398438 243.238281 L 177.480469 241.558594 L 178.558594 240 L 179.640625 238.441406 L 180.839844 236.878906 L 182.160156 235.441406 L 185.277344 231.960938 L 189.359375 227.519531 L 193.4375 223.199219 L 192.480469 219.960938 L 191.761719 217.320313 L 190.921875 214.679688 L 190.199219 211.800781 L 189.71875 208.921875 L 189.480469 207.238281 L 189.359375 205.441406 L 189.480469 203.640625 L 189.839844 201.839844 L 190.320313 200.039063 L 190.921875 198.238281 L 191.761719 196.679688 L 192.71875 195.121094 L 193.800781 193.679688 L 194.519531 192.839844 L 195.359375 192 L 196.199219 191.28125 L 197.160156 190.558594 L 198.359375 189.71875 L 199.679688 189.121094 L 201 188.519531 L 202.320313 188.039063 L 203.761719 187.679688 L 205.199219 187.320313 L 206.761719 187.199219 L 208.199219 187.199219 L 210.117188 187.320313 L 212.160156 187.800781 L 214.078125 188.398438 L 215.878906 189.238281 L 217.558594 190.320313 L 219.238281 191.640625 L 220.558594 193.078125 L 221.160156 193.800781 L 221.761719 194.640625 L 222.359375 195.601563 L 222.839844 196.558594 L 223.199219 197.640625 L 223.4375 198.71875 L 223.679688 200.28125 L 223.800781 201.71875 L 223.800781 203.28125 L 223.679688 204.71875 L 223.4375 205.558594 L 223.078125 207 L 222.601563 208.320313 L 221.878906 210 L 221.160156 211.558594 L 220.320313 213.121094 L 219.480469 214.679688 L 217.558594 217.679688 L 215.398438 220.558594 L 214.199219 222.238281 L 211.320313 225.71875 L 208.558594 229.320313 L 212.878906 243 "/>
<path style=" stroke:none;fill-rule:evenodd;fill:rgb(100%,100%,100%);fill-opacity:1;" d="M 203.640625 213 L 203.160156 211.679688 L 202.800781 210.359375 L 202.679688 209.519531 L 202.4375 208.199219 L 202.320313 207.121094 L 202.320313 204.839844 L 202.4375 203.761719 L 202.679688 203.039063 L 202.921875 202.199219 L 203.398438 201.480469 L 203.878906 200.761719 L 204.601563 200.28125 L 205.199219 200.160156 L 205.679688 200.039063 L 206.160156 199.921875 L 206.761719 199.921875 L 207.238281 200.039063 L 207.71875 200.160156 L 208.199219 200.398438 L 208.679688 200.640625 L 209.039063 201 L 209.277344 201.359375 L 209.519531 201.71875 L 209.761719 202.199219 L 209.878906 203.160156 L 209.761719 204.121094 L 209.640625 204.960938 L 209.277344 205.800781 L 208.921875 206.640625 L 208.4375 207.359375 L 207.71875 208.441406 L 206.878906 209.398438 L 203.640625 213 "/>
<path style=" stroke:none;fill-rule:evenodd;fill:rgb(100%,100%,100%);fill-opacity:1;" d="M 199.078125 240.960938 L 202.921875 252.359375 L 200.878906 253.921875 L 198.839844 255.359375 L 198.238281 255.839844 L 197.519531 256.199219 L 196.921875 256.441406 L 196.199219 256.800781 L 195.480469 257.039063 L 194.761719 257.160156 L 193.921875 257.160156 L 193.199219 257.039063 L 192.480469 256.558594 L 192.117188 256.320313 L 192 255.960938 L 191.640625 255.238281 L 191.640625 253.320313 L 191.878906 252.359375 L 192.117188 251.519531 L 192.601563 250.558594 L 193.078125 249.601563 L 193.558594 248.640625 L 194.761719 246.71875 L 196.078125 244.921875 L 197.398438 243.121094 L 199.078125 240.960938 "/>
</g>
</svg>
