<?xml version="1.0" encoding="utf-8"?>
<!-- Generator: Adobe Illustrator 23.0.1, SVG Export Plug-In . SVG Version: 6.00 Build 0)  -->
<svg version="1.1" id="Layer_1" xmlns="http://www.w3.org/2000/svg" xmlns:xlink="http://www.w3.org/1999/xlink" x="0px" y="0px"
	 viewBox="0 0 512 512" style="enable-background:new 0 0 512 512;" xml:space="preserve">
<style type="text/css">
	.st0{fill:#004651;}
	.st1{fill:#ED1C24;}
	.st2{fill:#007DC5;}
	.st3{fill:#A3238E;}
	.st4{fill:#D3DF4E;}
	.st5{fill:#4096A6;}
	.st6{fill:#FFFFFF;}
	.st7{fill:#A51318;}
	.st8{fill:#27AAE1;}
	.st9{fill:#EA6620;}
	.st10{fill:#F99B1C;}
	.st11{fill:#75C044;}
</style>
<rect class="st0" width="512" height="512"/>
<g>
	<polygon class="st1" points="63.8,201.5 96.5,168.8 63.8,136 	"/>
	<polygon class="st2" points="260.3,201.6 293.1,168.8 260.3,136 	"/>
	<polygon class="st3" points="31,234.3 63.8,201.5 31,168.8 	"/>
	<polygon class="st4" points="63.8,136 96.5,168.8 129.3,136 	"/>
	<polygon class="st5" points="227.6,168.8 194.8,136 162,168.8 	"/>
	<polygon class="st6" points="129.3,201.6 162,168.8 194.8,201.6 227.6,168.8 260.3,201.5 194.8,267.1 	"/>
	<polygon class="st7" points="63.8,136 31,168.8 63.8,201.6 	"/>
	<polygon class="st3" points="293.1,168.8 260.3,201.5 293.1,234.3 	"/>
	<polygon class="st8" points="260.3,136 227.6,168.8 260.3,201.6 	"/>
	<polygon class="st9" points="260.3,267.1 293.1,234.3 260.3,201.5 	"/>
	<polygon class="st10" points="260.3,201.5 227.6,234.3 260.3,267.1 	"/>
	<polygon class="st7" points="227.6,299.8 260.3,267.1 227.6,234.3 	"/>
	<polygon class="st1" points="227.6,234.3 194.8,267.1 227.6,299.8 	"/>
	<polygon class="st8" points="194.8,267.1 162,299.8 194.8,332.6 	"/>
	<polygon class="st2" points="194.8,332.6 227.6,299.8 194.8,267.1 	"/>
	<polygon class="st4" points="194.8,332.6 162,299.8 129.3,332.6 	"/>
	<polygon class="st7" points="129.3,267.1 96.5,299.8 129.3,332.6 	"/>
	<polygon class="st1" points="129.3,332.6 162,299.8 129.3,267.1 	"/>
	<polygon class="st10" points="96.5,299.8 129.3,267.1 96.5,234.3 	"/>
	<polygon class="st9" points="96.5,234.3 63.8,267.1 96.5,299.8 	"/>
	<polygon class="st2" points="63.8,201.5 31,234.3 63.8,267.1 	"/>
	<polygon class="st8" points="63.8,267.1 96.5,234.3 63.8,201.5 	"/>
	<polygon class="st4" points="194.8,136 227.6,168.8 260.3,136 	"/>
	<path class="st11" d="M129.3,332.6l18.2,18.1h0c3.8,3.6,8.9,5.9,14.5,5.9c5.6,0,10.7-2.2,14.5-5.9h0l18.2-18.1H129.3z"/>
	<path class="st11" d="M129.3,136l-18.2-18.1h0c-3.8-3.6-8.9-5.9-14.5-5.9c-5.6,0-10.7,2.2-14.5,5.9h0L63.8,136H129.3z"/>
	<path class="st11" d="M260.3,136l-18.2-18.1h0c-3.8-3.6-8.9-5.9-14.5-5.9c-5.6,0-10.7,2.2-14.5,5.9h0L194.8,136H260.3z"/>
	<path class="st6" d="M262,373.2c0-2.8,0.5-5.3,1.6-7.6c1-2.2,2.5-4.1,4.3-5.7c1.8-1.5,4-2.7,6.5-3.5c2.5-0.8,5.3-1.2,8.2-1.2
		s5.7,0.4,8.3,1.2c2.5,0.8,4.7,2,6.5,3.5c1.8,1.6,3.2,3.4,4.3,5.7c1,2.2,1.5,4.7,1.5,7.6v25.6h-9.6v-23.1c0-3.8-0.9-6.7-2.8-8.7
		c-1.9-2-4.6-3-8.2-3c-3.7,0-6.4,1-8.2,3c-1.8,2-2.7,4.9-2.7,8.7v23.1H262V373.2z"/>
	<path class="st6" d="M343.1,379.9c-0.6-0.1-1.6-0.3-3.2-0.5c-1.5-0.2-3.9-0.3-7-0.3c-3.8,0-6.6,0.6-8.4,1.7c-1.7,1.1-2.6,3-2.6,5.4
		c0,1,0.2,1.9,0.6,2.8c0.4,0.8,1,1.6,1.9,2.2c0.9,0.6,2.1,1,3.7,1.3c1.5,0.3,3.5,0.5,5.8,0.5c2.6,0,4.6-0.1,6.2-0.3
		c1.5-0.2,2.5-0.3,3-0.5V379.9z M352.6,398.6c-0.6,0.1-1.4,0.2-2.7,0.4c-1.2,0.1-2.6,0.3-4.3,0.4c-1.6,0.1-3.5,0.3-5.5,0.4
		c-2,0.1-4.1,0.2-6.3,0.2c-4.4,0-8-0.4-10.8-1.1c-2.8-0.8-5-1.8-6.6-3c-1.6-1.3-2.7-2.7-3.3-4.4c-0.6-1.7-0.9-3.4-0.9-5.1
		c0-2.3,0.4-4.3,1.1-6.1c0.7-1.7,1.9-3.2,3.5-4.4c1.6-1.2,3.7-2.1,6.3-2.6c2.6-0.6,5.7-0.9,9.5-0.9c2.1,0,4.2,0.1,6.1,0.2
		c1.9,0.1,3.4,0.3,4.3,0.4c0-2-0.3-3.6-1-4.9c-0.6-1.3-1.5-2.3-2.7-3c-1.1-0.7-2.5-1.2-4.1-1.5c-1.6-0.3-3.3-0.4-5.2-0.4
		c-3.2,0-5.8,0.4-7.7,1.1c-2,0.7-3.2,1.4-3.8,1.9c-0.3-0.3-0.8-0.8-1.4-1.6c-0.6-0.8-0.9-1.7-0.9-2.9c0-0.8,0.2-1.6,0.6-2.3
		c0.4-0.8,1.2-1.4,2.2-2c1.1-0.6,2.5-1.1,4.3-1.4c1.8-0.3,4.1-0.5,6.8-0.5c3.3,0,6.3,0.3,9.1,1c2.7,0.6,5.1,1.7,7,3.1
		c2,1.4,3.5,3.3,4.6,5.6c1.1,2.3,1.6,5.1,1.6,8.3V398.6z"/>
	<path class="st6" d="M363.1,345c0-1.5,0.4-2.6,1.3-3.4c0.9-0.7,2.2-1.1,3.8-1.1c1,0,1.9,0.1,2.8,0.4c0.9,0.3,1.4,0.4,1.7,0.5v19.2
		c1.1-1.3,2.8-2.6,5.1-3.8c2.2-1.2,5.2-1.8,8.8-1.8c2.6,0,5,0.4,7.1,1.1c2.2,0.7,4,1.8,5.6,3.3c1.6,1.4,2.8,3.2,3.6,5.4
		c0.8,2.1,1.3,4.6,1.3,7.5v26.4h-9.6v-23.6c0-3.7-0.8-6.5-2.3-8.4c-1.5-1.9-4.2-2.9-8-2.9c-3.8,0-6.7,1.1-8.6,3.3
		c-1.9,2.2-2.9,5.2-2.9,8.8v22.7h-9.6V345z"/>
	<path class="st6" d="M450.4,377.6c0-1.9-0.3-3.7-1-5.4c-0.6-1.7-1.5-3.1-2.7-4.4c-1.1-1.2-2.5-2.2-4.1-2.9
		c-1.6-0.7-3.4-1.1-5.3-1.1c-2,0-3.7,0.3-5.3,1.1c-1.6,0.7-2.9,1.7-4.1,2.9c-1.2,1.2-2,2.7-2.7,4.3c-0.6,1.7-0.9,3.5-0.9,5.5
		c0,2,0.3,3.8,0.9,5.4c0.6,1.7,1.5,3.1,2.7,4.3c1.2,1.2,2.5,2.2,4.1,2.9c1.6,0.7,3.3,1.1,5.3,1.1c1.9,0,3.7-0.3,5.3-1
		c1.6-0.7,3-1.6,4.1-2.8c1.1-1.2,2-2.6,2.7-4.3C450,381.5,450.4,379.6,450.4,377.6 M450.4,345c0-1.5,0.4-2.6,1.3-3.4
		c0.9-0.7,2.1-1.1,3.8-1.1c1,0,1.9,0.1,2.8,0.4c0.9,0.3,1.4,0.4,1.7,0.5v34.1c0,4.1-0.6,7.7-1.7,10.7c-1.2,3-2.7,5.6-4.8,7.6
		c-2,2-4.4,3.5-7.2,4.6c-2.7,1-5.8,1.5-9,1.5c-3.3,0-6.4-0.6-9.2-1.7c-2.8-1.1-5.2-2.7-7.2-4.6c-2-2-3.6-4.3-4.8-7.1
		c-1.2-2.8-1.7-5.7-1.7-8.9c0-3.3,0.6-6.3,1.7-9c1.1-2.7,2.6-5.1,4.6-7.1c1.9-2,4.2-3.5,6.8-4.6c2.6-1.1,5.5-1.6,8.6-1.6
		c3.3,0,6.1,0.6,8.6,1.9c2.5,1.3,4.4,2.8,5.8,4.6V345z"/>
	<path class="st6" d="M475.2,339.6c1.6,0,3,0.6,4.1,1.7c1.1,1.1,1.7,2.5,1.7,4.1c0,1.6-0.6,3-1.7,4.1c-1.1,1.1-2.5,1.7-4.1,1.7
		c-1.6,0-3-0.6-4.1-1.7c-1.1-1.1-1.7-2.5-1.7-4.1c0-1.6,0.6-3,1.7-4.1C472.2,340.1,473.5,339.6,475.2,339.6"/>
	<path class="st6" d="M470.1,360.9c0-1.6,0.4-2.7,1.3-3.4c0.9-0.7,2.2-1.1,3.8-1.1c1,0,1.9,0.1,2.8,0.4c0.8,0.2,1.4,0.4,1.7,0.6
		v41.4h-9.6V360.9z"/>
	<path class="st6" d="M293.6,288.5c-1.6,0.8-3,1.8-4.2,3.2c-1.1,1.3-2,2.9-2.6,4.8c-0.6,1.8-0.9,3.9-0.9,6v10.4h13.9v3.8
		c0,3.7-0.9,6.6-2.7,8.5c-1.8,1.9-4.5,2.9-8,2.9h-8.4c-3.6,0-6.3-1-8-2.9c-1.8-2-2.7-4.8-2.7-8.5v-13c-0.3-0.1-0.8-0.3-1.7-0.5
		c-0.8-0.3-1.7-0.4-2.7-0.4c-1.6,0-2.8,0.3-3.7,1c-0.9,0.7-1.3,1.8-1.3,3.3v11.9c0,2.8,0.5,5.2,1.5,7.4c1,2.2,2.4,4,4.2,5.5
		c1.8,1.5,3.9,2.7,6.3,3.5c2.4,0.8,5.1,1.2,8,1.2h8.4c2.9,0,5.6-0.4,8-1.2c2.4-0.8,4.6-2,6.4-3.5c1.8-1.5,3.2-3.4,4.2-5.5
		c1-2.2,1.5-4.6,1.5-7.4v-15.6H295c0-0.6-0.9-7.1,4.5-7.1h9.8v-9.1h-10.1C297.1,287.3,295.3,287.7,293.6,288.5"/>
	<path class="st6" d="M428.2,283.4c1.6,0,3-0.6,4.1-1.7c1.1-1.1,1.7-2.5,1.7-4.1c0-1.6-0.6-3-1.7-4.1c-1.1-1.1-2.5-1.7-4.1-1.7
		c-1.6,0-3,0.6-4.1,1.7c-1.1,1.1-1.7,2.5-1.7,4.1c0,1.6,0.6,3,1.7,4.1C425.2,282.9,426.6,283.4,428.2,283.4"/>
	<path class="st6" d="M478.1,272.2c-0.8-0.3-1.8-0.4-2.8-0.4c-1.6,0-2.9,0.4-3.8,1.1c-0.9,0.7-1.3,1.9-1.3,3.4v55.3h9.6v-58.8
		C479.5,272.6,478.9,272.4,478.1,272.2"/>
	<path class="st6" d="M292.3,340.6c-1.6,0-3,0.6-4.1,1.7c-1.1,1.1-1.7,2.5-1.7,4.1c0,1.6,0.6,3,1.7,4.1c1.1,1.1,2.5,1.7,4.1,1.7
		c1.6,0,3-0.6,4.1-1.7c1.1-1.1,1.7-2.5,1.7-4.1c0-1.6-0.6-3-1.7-4.1C295.3,341.1,294,340.6,292.3,340.6"/>
	<path class="st6" d="M272.8,340.6c-1.6,0-3,0.6-4.1,1.7c-1.1,1.1-1.7,2.5-1.7,4.1c0,1.6,0.6,3,1.7,4.1c1.1,1.1,2.5,1.7,4.1,1.7
		c1.6,0,3-0.6,4.1-1.7c1.1-1.1,1.7-2.5,1.7-4.1c0-1.6-0.6-3-1.7-4.1C275.8,341.1,274.4,340.6,272.8,340.6"/>
	<path class="st6" d="M376.8,312.8c0-0.6,0.2-1.4,0.4-1.8c0.3-0.6,0.8-1.1,1.4-1.5c0.6-0.4,1.3-0.6,2.1-0.7c0.6-0.1,1.3-0.2,2-0.2h2
		c0.7,0,1.4,0.1,2,0.2c0.8,0.1,1.5,0.4,2.1,0.7c0.6,0.4,1,0.9,1.4,1.5c0.2,0.4,0.4,1.2,0.4,1.8l0.1,8.3h-13.7L376.8,312.8z
		 M455.6,271.8c-1.6,0-2.9,0.4-3.7,1c-0.9,0.7-1.3,1.8-1.3,3.4l0.1,36.3c0,3-0.3,5.1-0.7,6.1c-0.9,1.9-2.9,2.8-6,2.8l-13-0.1
		c1.3-1.6,2-4.8,2-9.8l0-22.6c-0.3-0.1-0.8-0.3-1.7-0.5c-0.8-0.3-1.7-0.4-2.8-0.4c-1.6,0-2.9,0.4-3.7,1c-0.9,0.7-1.3,1.8-1.3,3.4
		v19.7c0,2.9-0.3,5.1-1,6.4c-1,1.9-2.9,2.9-4.9,2.9h-6V303c0-3.3-0.5-6.1-1.6-8.4c-1.1-2.3-2.6-4.2-4.6-5.6c-2-1.4-4.3-2.4-7-3.1
		c-2.7-0.7-5.8-1-9.1-1c-2.8,0-5,0.2-6.8,0.5c-1.8,0.3-3.2,0.8-4.3,1.4c-1.1,0.6-1.8,1.3-2.2,2c-0.4,0.8-0.6,1.5-0.6,2.3
		c0,1.1,0.3,2.1,0.9,2.9c0.6,0.8,1.1,1.3,1.4,1.6c0.6-0.5,1.9-1.1,3.8-1.9c1.9-0.7,4.5-1.1,7.7-1.1c1.9,0,3.7,0.1,5.2,0.4
		c1.6,0.3,2.9,0.8,4.1,1.5c1.1,0.7,2,1.7,2.7,3c0.4,0.9,0.8,2.5,0.8,3.7l0.2,19.9h-4.4l-0.1-9.9c0-1.1-0.4-2.8-0.8-3.7
		c-0.7-1.3-1.6-2.3-2.8-3c-1.2-0.7-2.6-1.2-4.2-1.5c-1.2-0.2-2.6-0.3-4.1-0.4h-4c-1.5,0-2.8,0.2-4.1,0.4c-1.7,0.3-3.1,0.8-4.2,1.5
		c-1.2,0.7-2.1,1.7-2.8,3c-0.5,0.9-0.8,2.5-0.8,3.7l-0.1,9.9h-14.1v-7.8c0-3.3-0.5-6-1.6-8.4c-1.1-2.3-2.6-4.2-4.6-5.6
		c-2-1.4-4.3-2.4-7-3.1c-2.7-0.6-5.8-1-9.1-1c-2.8,0-5,0.2-6.8,0.5c-1.8,0.3-3.2,0.8-4.3,1.4c-1.1,0.6-1.8,1.3-2.2,2
		c-0.4,0.8-0.6,1.5-0.6,2.3c0,1.1,0.3,2.1,0.9,2.9c0.6,0.8,1.1,1.3,1.4,1.6c0.6-0.5,1.9-1.1,3.8-1.9c1.9-0.7,4.5-1.1,7.7-1.1
		c1.9,0,3.7,0.1,5.2,0.4c1.6,0.3,2.9,0.8,4.1,1.5c1.1,0.7,2,1.7,2.7,3c0.4,0.9,0.8,2.5,0.8,3.7l0,9.3h-27.5v9.6h127.7
		c9.4,0,14.1-5.1,14.1-15.3v-43c-0.3-0.1-0.8-0.3-1.7-0.5C457.5,271.9,456.6,271.8,455.6,271.8"/>
</g>
</svg>
