<?xml version="1.0" encoding="utf-8"?>
<!-- Generator: Adobe Illustrator 25.4.1, SVG Export Plug-In . SVG Version: 6.00 Build 0)  -->
<svg version="1.1" id="Layer_1" xmlns="http://www.w3.org/2000/svg" xmlns:xlink="http://www.w3.org/1999/xlink" x="0px" y="0px"
	 viewBox="0 0 1000 1000" style="enable-background:new 0 0 1000 1000;" xml:space="preserve">
<style type="text/css">
	.st0{fill-rule:evenodd;clip-rule:evenodd;fill:#1A1919;}
</style>
<g id="Web">
	<g id="NewMenu_00" transform="translate(-1385.000000, -30.000000)">
		<g id="logo" transform="translate(1385.000000, 30.000000)">
			<path id="Fill-23" class="st0" d="M88.2,471.8c-5,0.9-11,1.3-17.4,1.3c-11.9,0-16.9-5.7-16.9-17.8v-35H42.7V456
				c0,18.6,8.7,27.7,27.6,27.7c9,0,21.5-1,29.2-3v-2.4v-58.1H88.2V471.8z"/>
			<polygon id="Fill-25" class="st0" points="66.6,400.3 78.1,400.3 78.1,386.6 66.6,386.6 			"/>
			<path id="Fill-27" class="st0" d="M144.8,431.8v24.5c-2.1,0.6-4.1,1.1-6.6,1.1c-6,0-11.2-3.6-11.2-13c0-9.5,5.9-13.4,11.8-13.4
				C141.3,430.9,142.8,431.3,144.8,431.8 M115.9,444.5c0,16.2,9.5,23.9,22.1,23.9c2.5,0,4.8-0.3,6.8-0.8c-0.9,9-6,13.9-16.7,13.9
				c-1.3,0-6.7-0.4-8.2-0.4l5.3,11h3.5c18.7,0,27.5-9.4,27.5-27.5v-41.5c-7-2-11.2-2.9-17.6-2.9
				C126.6,420.2,115.9,427.9,115.9,444.5"/>
			<path id="Fill-28" class="st0" d="M542.5,442.8c0,9.7-3.6,14.6-13.6,14.6h-23.8v-70.7h-11.3v70.7v10.9h11.3h24.9
				c16.2,0,23.7-8,23.7-23.5v-24.6h-11.3V442.8z"/>
			<polygon id="Fill-29" class="st0" points="542.4,400.4 553.8,400.4 553.8,386.7 542.4,386.7 			"/>
			<path id="Fill-30" class="st0" d="M467.3,457.4H333.5c-4,0-8.3-0.8-12.9-3.1c0.9-3,1.4-5.8,1.4-9.4v-24.6h-11.4v22.6
				c0,9.7-2.8,14.6-10.7,14.6c-3.9,0-8.3-0.6-12.8-3c1-2.5,1.4-5.9,1.4-9.5v-24.6h-11.3v22.6c0,9.7-2.6,14.6-10.5,14.6
				c-4.5,0-10.3-0.6-14.9-1.6v-35.5h-11.3v52.8h-17.4c-11.9,0-16.9-5.7-16.9-17.8v-35h-11.2V456c0,18.6,8.7,27.7,27.6,27.7h29.2
				v-17.1c5.5,1,11.4,1.6,15.6,1.6c5.5,0,10.4-1.6,14.1-4.6c6.6,3.5,12.8,4.6,19.2,4.6c6.1,0,11-1.5,14.6-4.6
				c6.4,3.4,12.9,4.6,19,4.6h133.3h2h9.3v-48.1h-11.3V457.4z"/>
			<polygon id="Fill-31" class="st0" points="464.4,495.2 475.8,495.2 475.8,481.5 464.4,481.5 			"/>
			<polygon id="Fill-32" class="st0" points="443.8,495.2 455.2,495.2 455.2,481.5 443.8,481.5 			"/>
			<path id="Fill-33" class="st0" d="M193.9,548.3c6.6,0,12.9,2.2,17.9,6.3l7.3-9c-7-5.7-16-8.9-25.2-8.9c-21.6,0-39.2,17.1-39.2,38
				c0,21,17.6,38,39.2,38c8.9,0,17.5-2.9,24.5-8.3l-7.1-9.1c-5,3.8-11,5.9-17.4,5.9c-15.2,0-27.6-11.9-27.6-26.5
				C166.2,560.1,178.6,548.3,193.9,548.3"/>
			<polygon id="Fill-34" class="st0" points="125.5,612.2 137.1,612.2 137.1,537.2 125.5,537.2 			"/>
			<polygon id="Fill-35" class="st0" points="96.4,594.2 55.6,537.2 42.7,537.2 42.7,612.2 54.2,612.2 54.2,555.2 95.1,612.2 
				108,612.2 108,537.2 96.4,537.2 			"/>
			<polygon id="Fill-36" class="st0" points="479.5,594.2 438.6,537.2 425.7,537.2 425.7,612.2 437.3,612.2 437.3,555.3 
				478.1,612.2 491,612.2 491,537.2 479.5,537.2 			"/>
			<polygon id="Fill-37" class="st0" points="238.8,612.8 284.7,612.8 284.7,601.2 250.3,601.2 250.3,578.9 278.5,578.9 
				278.5,567.3 250.3,567.3 250.3,548.3 284.7,548.3 284.7,536.7 238.8,536.7 			"/>
			<polygon id="Fill-38" class="st0" points="554.5,548.3 554.5,536.7 508.6,536.7 508.6,612.8 554.5,612.8 554.5,601.2 
				520.2,601.2 520.2,578.9 548.4,578.9 548.4,567.3 520.2,567.3 520.2,548.3 			"/>
			<path id="Fill-39" class="st0" d="M370.1,601.2c-14.6,0-26.5-11.9-26.5-26.5s11.9-26.5,26.5-26.5c14.6,0,26.5,11.9,26.5,26.5
				S384.7,601.2,370.1,601.2 M370.1,536.7c-21,0-38,17.1-38,38c0,21,17.1,38,38,38c21,0,38-17.1,38-38
				C408.2,553.8,391.1,536.7,370.1,536.7"/>
			<path id="Fill-40" class="st0" d="M794.3,651.8c-83.9,0-152.1-68.2-152.1-152.1c0-83.9,68.2-152.1,152.1-152.1
				c83.9,0,152.1,68.2,152.1,152.1C946.5,583.6,878.2,651.8,794.3,651.8 M794.3,337c-89.7,0-162.7,73-162.7,162.7
				c0,89.7,73,162.7,162.7,162.7c89.7,0,162.7-73,162.7-162.7C957,410,884,337,794.3,337"/>
			<path id="Fill-41" class="st0" d="M826.8,557.3l-10.5-10.5h25.1v-25.1l15.2,15.2v25.1h-18.5C833.8,561.9,829.8,560.3,826.8,557.3
				L826.8,557.3z M815.6,521v-25.1l15.2,15.2v25.1h-25.1L790.5,521H815.6z M783.6,510.4h21.5v-21.5h-21.5V510.4z M757.8,463.2H783
				l15.2,15.2h-25.1v25.1l-15.2-15.2V463.2z M732.1,437.4h18.5c4.3,0,8.3,1.7,11.3,4.7l10.5,10.5h-25.1v25.1l-15.2-15.2V437.4z
				 M845.6,437.4h11v84.5l-87.3-87.3c-5-5-11.7-7.8-18.7-7.8h-29v5.3v34.7v95h-11v10.5h32.6v-10.5h-11v-84.5l87.3,87.3
				c5,5,11.7,7.8,18.7,7.8h29v-5.3v-34.7v-95h11v-10.5h-32.6V437.4z"/>
		</g>
	</g>
</g>
</svg>
