<?xml version="1.0" standalone="no"?>
<!DOCTYPE svg PUBLIC "-//W3C//DTD SVG 20010904//EN"
 "http://www.w3.org/TR/2001/REC-SVG-20010904/DTD/svg10.dtd">
<svg version="1.0" xmlns="http://www.w3.org/2000/svg"
 width="852.000000pt" height="350.000000pt" viewBox="0 0 852.000000 350.000000"
 preserveAspectRatio="xMidYMid meet">

<g transform="translate(0.000000,350.000000) scale(0.100000,-0.100000)"
fill="#000000" stroke="none">
<path d="M1618 3467 c-43 -7 -82 -17 -87 -22 -5 -6 -82 -136 -171 -290 -89
-154 -171 -294 -181 -312 l-20 -32 68 31 c37 16 111 42 163 56 82 21 118 25
260 26 128 1 183 -3 244 -17 43 -11 82 -15 86 -10 4 4 71 118 149 253 l142
245 -69 22 c-38 12 -102 29 -143 38 -97 21 -340 28 -441 12z"/>
<path d="M4864 3341 c-36 -22 -58 -75 -48 -115 19 -76 123 -105 176 -48 35 36
43 71 25 115 -26 62 -95 83 -153 48z"/>
<path d="M8014 3341 c-36 -22 -59 -78 -49 -113 4 -13 19 -35 33 -50 36 -39
107 -40 145 -2 52 52 41 136 -23 169 -39 20 -68 19 -106 -4z"/>
<path d="M2671 2856 c-78 -134 -141 -247 -141 -251 0 -4 34 -43 75 -87 437
-457 426 -1171 -25 -1619 -472 -469 -1231 -466 -1696 7 -162 164 -271 368
-319 596 -22 101 -30 287 -16 382 6 44 10 81 8 82 -2 2 -122 -65 -268 -149
l-264 -154 2 -109 c5 -344 175 -730 442 -1007 167 -173 303 -271 511 -371 688
-328 1503 -176 2026 377 438 464 585 1118 384 1719 -96 288 -307 601 -531 789
l-47 39 -141 -244z"/>
<path d="M6159 3077 c-305 -106 -395 -502 -166 -731 104 -105 202 -136 420
-136 l150 0 -6 -37 c-10 -61 -64 -157 -113 -203 -55 -51 -141 -92 -206 -98
l-48 -5 0 -99 0 -100 43 7 c23 3 65 11 92 17 202 44 378 226 415 428 7 36 14
71 16 78 3 9 145 12 667 12 403 0 685 4 718 10 160 30 295 149 348 308 18 53
21 86 21 232 l0 170 -94 0 -94 0 -4 -167 c-4 -191 -12 -218 -88 -287 -83 -75
-38 -71 -792 -74 l-678 -3 0 139 c0 76 -5 165 -11 198 -26 141 -117 259 -249
323 -68 32 -84 36 -175 39 -84 2 -111 -1 -166 -21z m251 -188 c60 -27 98 -64
126 -124 22 -46 24 -63 24 -209 l0 -158 -152 4 c-127 3 -161 7 -198 24 -56 26
-107 76 -131 129 -23 49 -25 149 -4 198 53 128 211 192 335 136z"/>
<path d="M4352 2668 c4 -213 8 -273 22 -318 68 -215 248 -368 471 -401 206
-31 421 66 542 243 87 130 96 168 101 476 l4 263 -99 -3 -98 -3 -5 -260 -5
-260 -29 -56 c-35 -71 -104 -139 -176 -176 -50 -25 -65 -28 -160 -28 -96 0
-110 3 -161 29 -71 35 -139 104 -176 176 l-28 55 -5 260 -5 260 -98 3 -99 3 4
-263z"/>
<path d="M4643 1316 c-24 -8 -59 -23 -79 -35 -39 -23 -54 -20 -54 10 0 17 -7
19 -80 19 l-80 0 0 -385 0 -385 100 0 99 0 3 248 c3 240 4 248 26 280 67 93
215 94 264 2 16 -31 18 -61 18 -282 l0 -248 101 0 101 0 -4 273 c-4 254 -5
276 -26 329 -28 68 -88 133 -150 161 -59 26 -180 33 -239 13z"/>
<path d="M5739 1312 c-108 -36 -184 -106 -237 -219 -24 -52 -27 -69 -27 -163
1 -133 23 -195 102 -280 142 -154 359 -169 526 -38 102 81 156 231 136 378
-19 133 -98 244 -216 302 -83 41 -196 49 -284 20z m197 -191 c51 -23 89 -71
105 -134 30 -122 -32 -241 -141 -267 -142 -34 -259 96 -229 255 25 132 147
199 265 146z"/>
<path d="M6905 1317 c-144 -48 -234 -143 -271 -287 -73 -284 169 -556 443
-500 166 34 284 158 315 330 30 175 -68 364 -227 436 -71 33 -194 42 -260 21z
m184 -197 c103 -52 141 -181 87 -296 -27 -59 -63 -88 -128 -104 -122 -31 -227
63 -228 203 0 162 139 264 269 197z"/>
<path d="M8125 1323 c-36 -8 -79 -26 -107 -45 -35 -24 -45 -23 -52 7 -6 24
-10 25 -81 25 l-75 0 0 -385 0 -385 95 0 95 0 0 228 c0 246 6 279 61 329 72
65 185 54 236 -24 16 -24 18 -56 21 -280 l3 -253 95 0 95 0 -3 283 -3 282 -28
57 c-35 72 -104 133 -170 153 -48 14 -137 18 -182 8z"/>
</g>
</svg>
