<?xml version="1.0" encoding="UTF-8"?>
<svg xmlns="http://www.w3.org/2000/svg" xmlns:xlink="http://www.w3.org/1999/xlink" width="195.24pt" height="47.37pt" viewBox="0 0 195.24 47.37" version="1.1">
<defs>
<clipPath id="clip1">
  <path d="M 185 4 L 195.238281 4 L 195.238281 12 L 185 12 Z M 185 4 "/>
</clipPath>
<clipPath id="clip2">
  <path d="M 172 44 L 175 44 L 175 47.371094 L 172 47.371094 Z M 172 44 "/>
</clipPath>
<clipPath id="clip3">
  <path d="M 169 44 L 172 44 L 172 47.371094 L 169 47.371094 Z M 169 44 "/>
</clipPath>
<clipPath id="clip4">
  <path d="M 162 44 L 165 44 L 165 47.371094 L 162 47.371094 Z M 162 44 "/>
</clipPath>
<clipPath id="clip5">
  <path d="M 154 38 L 179 38 L 179 47.371094 L 154 47.371094 Z M 154 38 "/>
</clipPath>
<clipPath id="clip6">
  <path d="M 151 44 L 154 44 L 154 47.371094 L 151 47.371094 Z M 151 44 "/>
</clipPath>
</defs>
<g id="surface1">
<path style=" stroke:none;fill-rule:nonzero;fill:rgb(55.299377%,77.598572%,24.699402%);fill-opacity:1;" d="M 20.039063 25.351563 C 20.039063 26.375 19.820313 27.203125 19.378906 27.835938 C 18.9375 28.464844 18.304688 28.773438 17.484375 28.773438 C 15.617188 28.773438 14.683594 28.035156 14.683594 24.007813 C 14.683594 23.171875 14.6875 17.535156 14.6875 17.535156 L 5.351563 17.53125 C 5.351563 17.53125 5.359375 23.167969 5.359375 24.003906 C 5.355469 28.03125 4.414063 28.769531 2.539063 28.765625 C 1.742188 28.765625 1.121094 28.457031 0.671875 27.828125 C 0.222656 27.195313 0 26.371094 0 25.34375 L 0.0078125 3.425781 C 0.0078125 2.40625 0.234375 1.578125 0.6875 0.953125 C 1.140625 0.324219 1.761719 0.00390625 2.5625 0.00390625 C 4.429688 0.00390625 5.363281 1.089844 5.363281 3.289063 C 5.363281 4.054688 5.398438 11.054688 5.398438 11.054688 L 14.644531 11.058594 C 14.644531 11.058594 14.691406 5.570313 14.691406 4.8125 C 14.691406 2.730469 14.589844 0.0078125 17.484375 0.0078125 C 18.304688 0.0078125 18.9375 0.332031 19.386719 0.957031 C 19.824219 1.585938 20.050781 2.410156 20.046875 3.433594 L 20.039063 25.351563 "/>
<path style=" stroke:none;fill-rule:nonzero;fill:rgb(55.299377%,77.598572%,24.699402%);fill-opacity:1;" d="M 38.570313 12.054688 C 38.570313 13.285156 37.3125 16.910156 34.804688 22.90625 C 33.21875 26.558594 31.652344 30.210938 30.089844 33.863281 C 29.707031 34.785156 29.367188 35.414063 29.074219 35.746094 C 28.597656 36.265625 27.976563 36.535156 27.207031 36.535156 C 26.507813 36.535156 25.691406 36.292969 25.171875 35.820313 C 24.652344 35.34375 23.671875 34.011719 24.882813 31.523438 C 25.859375 29.488281 27.027344 26.488281 27.027344 26.488281 C 27.027344 26.488281 25.351563 22.113281 24.402344 19.804688 C 22.550781 15.160156 21.625 12.5 21.625 11.835938 C 21.628906 11.097656 21.875 10.480469 22.375 9.988281 C 22.871094 9.488281 23.480469 9.238281 24.203125 9.238281 C 25.488281 9.238281 26.390625 9.941406 26.910156 11.339844 L 30.027344 19.339844 C 30.027344 19.339844 31.96875 14.59375 32.625 12.667969 C 33.9375 9.421875 34.59375 9.242188 35.859375 9.242188 C 36.652344 9.242188 37.300781 9.507813 37.808594 10.015625 C 38.316406 10.519531 38.570313 11.203125 38.570313 12.054688 "/>
<path style=" stroke:none;fill-rule:nonzero;fill:rgb(55.299377%,77.598572%,24.699402%);fill-opacity:1;" d="M 73 16.660156 C 72.972656 16.144531 72.246094 14.058594 70.042969 14.058594 C 67.898438 14.058594 67.148438 16.144531 67.148438 16.65625 Z M 79.203125 18.394531 C 79.203125 19.324219 78.980469 19.964844 78.539063 20.320313 C 78.101563 20.679688 77.742188 21.1875 76.492188 21.1875 L 67.148438 21.183594 C 67.148438 21.183594 67.339844 21.921875 68.144531 22.742188 C 68.585938 23.1875 69.296875 23.503906 70.464844 23.503906 C 71.363281 23.503906 72.902344 23.089844 74.167969 22.503906 C 75.441406 21.917969 76.257813 21.746094 76.613281 21.746094 C 77.253906 21.746094 77.800781 21.925781 78.253906 22.40625 C 78.707031 22.882813 78.929688 23.675781 78.929688 24.335938 C 78.929688 25.851563 77.171875 27.101563 75.511719 27.945313 C 73.867188 28.792969 72.015625 29.101563 70.207031 29.101563 C 67.3125 29.101563 64.972656 28.144531 63.179688 26.222656 C 61.390625 24.300781 60.492188 21.882813 60.492188 18.972656 C 60.496094 16.203125 61.425781 13.824219 63.289063 11.851563 C 65.148438 9.867188 67.457031 8.882813 70.207031 8.886719 C 72.765625 8.886719 74.90625 9.820313 76.625 11.703125 C 78.34375 13.578125 79.203125 15.808594 79.203125 18.394531 "/>
<path style=" stroke:none;fill-rule:nonzero;fill:rgb(55.299377%,77.598572%,24.699402%);fill-opacity:1;" d="M 93.324219 11.773438 C 93.324219 12.964844 92.738281 14.125 91.550781 14.578125 C 90.46875 14.929688 89.378906 15.164063 88.289063 15.542969 C 87.109375 16.207031 86.515625 17.230469 86.515625 19.042969 L 86.511719 25.878906 C 86.511719 26.691406 86.246094 27.371094 85.710938 27.945313 C 85.175781 28.515625 84.496094 28.796875 83.664063 28.796875 C 82.839844 28.796875 82.160156 28.515625 81.625 27.945313 C 81.089844 27.371094 80.824219 26.6875 80.824219 25.875 L 80.828125 12.140625 C 80.828125 11.335938 81.097656 10.652344 81.632813 10.09375 C 82.15625 9.539063 82.84375 9.257813 83.664063 9.257813 C 85.023438 9.257813 85.964844 9.855469 86.496094 11.054688 C 87.707031 9.609375 89.011719 8.671875 90.414063 8.671875 C 91.214844 8.671875 92.054688 9.019531 92.625 9.589844 C 93.195313 10.15625 93.328125 10.996094 93.324219 11.773438 "/>
<path style=" stroke:none;fill-rule:nonzero;fill:rgb(0%,47.799683%,28.199768%);fill-opacity:1;" d="M 132.363281 26.707031 C 132.363281 26.707031 132.363281 26.707031 132.363281 26.714844 C 132.363281 26.707031 132.363281 26.707031 132.363281 26.707031 Z M 122.855469 15.605469 C 124.625 15.605469 126.070313 17.085938 126.078125 18.894531 C 126.070313 20.738281 124.625 22.203125 122.855469 22.199219 C 121.082031 22.199219 119.636719 20.722656 119.640625 18.90625 C 119.640625 17.085938 121.085938 15.605469 122.855469 15.605469 Z M 132.410156 12.414063 C 132.410156 10.617188 131.019531 9.15625 129.3125 9.15625 C 128.464844 9.15625 127.40625 9.582031 126.8125 10.199219 C 125.511719 9.539063 124.316406 9.132813 122.859375 9.132813 C 117.613281 9.132813 113.335938 13.519531 113.335938 18.90625 C 113.335938 24.386719 117.605469 28.847656 122.851563 28.847656 C 124.355469 28.847656 125.78125 28.335938 126.820313 27.835938 C 127.402344 28.476563 128.265625 28.847656 129.230469 28.851563 C 130.8125 28.851563 132.066406 27.875 132.34375 26.453125 C 132.378906 26.382813 132.402344 26.292969 132.402344 26.207031 L 132.410156 12.570313 C 132.40625 12.585938 132.410156 12.589844 132.410156 12.601563 C 132.410156 12.550781 132.40625 12.496094 132.40625 12.453125 C 132.40625 12.4375 132.410156 12.421875 132.410156 12.414063 "/>
<path style=" stroke:none;fill-rule:nonzero;fill:rgb(0%,47.799683%,28.199768%);fill-opacity:1;" d="M 104.359375 13.078125 C 102.789063 13.078125 101.429688 11.902344 101.1875 10.34375 L 101.1875 9.339844 C 101.429688 7.777344 102.789063 6.605469 104.363281 6.605469 C 106.140625 6.605469 107.585938 8.0625 107.582031 9.84375 C 107.582031 11.625 106.136719 13.078125 104.359375 13.078125 Z M 100.410156 18.667969 C 101.457031 19.265625 103.25 19.433594 104.359375 19.433594 C 109.605469 19.433594 113.878906 15.128906 113.882813 9.84375 C 113.882813 4.5625 109.613281 0.253906 104.367188 0.25 C 102.984375 0.25 101.652344 0.550781 100.414063 1.132813 C 99.824219 0.441406 98.972656 0.0390625 98.058594 0.0390625 C 96.316406 0.0390625 94.898438 1.460938 94.898438 3.226563 C 94.898438 3.246094 94.898438 3.273438 94.898438 3.300781 C 94.894531 3.367188 94.894531 3.449219 94.902344 3.550781 C 94.898438 3.53125 94.898438 3.511719 94.898438 3.492188 C 94.898438 7.046875 94.890625 25.566406 94.890625 25.667969 C 94.890625 27.410156 96.042969 28.839844 97.765625 28.839844 C 99.496094 28.839844 100.421875 27.410156 100.421875 25.660156 C 100.421875 25.546875 100.414063 25.210938 100.410156 24.941406 "/>
<path style=" stroke:none;fill-rule:nonzero;fill:rgb(0%,47.799683%,28.199768%);fill-opacity:1;" d="M 152.429688 18.871094 C 152.429688 13.472656 149.101563 9.246094 143.765625 9.246094 C 142.300781 9.246094 140.847656 9.605469 139.535156 10.273438 C 138.957031 9.714844 138.203125 9.402344 137.402344 9.402344 C 135.667969 9.398438 134.253906 10.859375 134.253906 12.65625 C 134.253906 12.671875 134.253906 12.703125 134.253906 12.726563 C 134.253906 12.792969 134.246094 12.886719 134.257813 12.988281 C 134.257813 12.96875 134.257813 12.945313 134.253906 12.925781 L 134.25 25.84375 C 134.25 25.851563 134.25 25.875 134.253906 25.886719 C 134.363281 27.542969 135.261719 28.851563 136.921875 28.855469 C 138.679688 28.855469 139.8125 27.453125 139.8125 25.660156 C 139.8125 25.644531 139.8125 25.625 139.8125 25.601563 C 139.8125 25.554688 139.8125 25.492188 139.808594 25.417969 C 139.8125 25.429688 139.8125 25.453125 139.8125 25.460938 L 139.8125 17.996094 C 139.882813 16.246094 141.664063 14.855469 143.398438 14.855469 C 145.117188 14.855469 146.929688 16.277344 147 18.019531 C 146.996094 18 146.996094 25.847656 146.996094 25.847656 C 146.996094 25.855469 146.996094 25.878906 146.996094 25.890625 C 147.109375 27.550781 148.070313 28.855469 149.726563 28.855469 C 151.476563 28.855469 152.425781 27.457031 152.425781 25.664063 C 152.425781 25.636719 152.425781 25.597656 152.429688 25.566406 C 152.429688 25.488281 152.429688 25.394531 152.425781 25.300781 L 152.429688 18.871094 "/>
<path style=" stroke:none;fill-rule:nonzero;fill:rgb(0%,47.799683%,28.199768%);fill-opacity:1;" d="M 163.460938 15.8125 C 165.097656 15.8125 166.496094 17.089844 166.660156 18.726563 L 166.660156 19.367188 C 166.492188 21.03125 165.121094 22.277344 163.457031 22.277344 C 161.683594 22.277344 160.238281 20.832031 160.238281 19.042969 C 160.238281 17.261719 161.683594 15.8125 163.460938 15.8125 Z M 172.949219 25.765625 L 172.953125 3.253906 C 172.953125 1.488281 171.90625 0 170.175781 0 C 168.441406 0 167.464844 1.488281 167.460938 3.25 C 167.460938 3.34375 167.464844 3.433594 167.472656 3.523438 L 167.472656 10.152344 C 166.441406 9.78125 164.570313 9.460938 163.464844 9.460938 C 158.210938 9.460938 153.941406 13.753906 153.941406 19.042969 C 153.9375 24.359375 158.292969 28.859375 163.457031 28.863281 C 164.828125 28.863281 166.203125 28.539063 167.457031 27.925781 C 168.039063 28.519531 168.886719 28.867188 169.816406 28.867188 C 171.628906 28.867188 172.945313 27.628906 172.945313 25.925781 C 172.945313 25.917969 172.949219 25.898438 172.949219 25.890625 C 172.949219 25.851563 172.949219 25.804688 172.949219 25.765625 "/>
<path style=" stroke:none;fill-rule:evenodd;fill:rgb(92.89856%,10.998535%,14.099121%);fill-opacity:1;" d="M 184.144531 22.363281 C 182.460938 22.363281 181.09375 20.976563 181.09375 19.261719 C 181.09375 17.550781 182.460938 16.160156 184.148438 16.160156 C 185.832031 16.160156 187.195313 17.550781 187.195313 19.265625 C 187.195313 20.980469 185.828125 22.363281 184.144531 22.363281 Z M 188.621094 10.667969 C 187.203125 9.882813 185.609375 9.472656 184.003906 9.472656 C 178.734375 9.46875 174.445313 13.785156 174.445313 19.09375 C 174.441406 21.667969 175.433594 24.113281 177.242188 25.976563 C 179.058594 27.847656 181.457031 28.886719 183.996094 28.886719 C 184 28.886719 188.664063 28.882813 188.664063 28.882813 C 191.339844 28.882813 193.4375 26.703125 193.4375 23.917969 L 193.4375 18.832031 C 193.453125 18.433594 193.546875 13.511719 188.621094 10.667969 "/>
<g clip-path="url(#clip1)" clip-rule="nonzero">
<path style=" stroke:none;fill-rule:nonzero;fill:rgb(55.299377%,77.598572%,24.699402%);fill-opacity:1;" d="M 195.03125 4.957031 L 194.816406 4.355469 L 194.285156 4.703125 C 193.417969 5.28125 192.53125 5.527344 191.179688 5.90625 C 190.53125 6.085938 189.796875 6.289063 188.910156 6.570313 C 185.8125 7.554688 185.566406 10.996094 185.558594 11.144531 L 185.535156 11.542969 L 185.914063 11.664063 C 187.507813 12.164063 191.472656 11.976563 193.695313 9.820313 C 195.960938 7.628906 195.070313 5.066406 195.03125 4.957031 "/>
</g>
<path style=" stroke:none;fill-rule:nonzero;fill:rgb(100%,100%,100%);fill-opacity:1;" d="M 186.144531 11.167969 C 186.144531 11.167969 187.792969 8.878906 190.261719 8.296875 C 193.019531 7.648438 194.480469 5.773438 194.503906 5.21875 C 194.503906 5.21875 194.328125 7.121094 190.535156 8.398438 C 189.898438 8.609375 188.199219 8.898438 186.144531 11.167969 "/>
<path style=" stroke:none;fill-rule:nonzero;fill:rgb(55.299377%,77.598572%,24.699402%);fill-opacity:1;" d="M 49.914063 23.070313 C 48.34375 23.070313 46.984375 21.589844 46.742188 19.621094 L 46.742188 18.355469 C 46.984375 16.386719 48.34375 14.902344 49.917969 14.902344 C 51.695313 14.90625 53.140625 16.738281 53.140625 18.992188 C 53.136719 21.238281 51.691406 23.070313 49.914063 23.070313 Z M 56.648438 12.074219 C 55.007813 9.941406 52.90625 8.878906 50.335938 8.878906 C 48.320313 8.875 46.726563 9.59375 45.5625 11.039063 C 45.015625 9.839844 44.148438 9.246094 42.960938 9.246094 C 42.171875 9.242188 41.515625 9.53125 40.980469 10.101563 C 40.441406 10.667969 40.175781 11.34375 40.175781 12.125 L 40.167969 33.613281 C 40.167969 34.476563 40.207031 36.960938 42.90625 36.972656 C 45.640625 36.984375 45.660156 35.394531 45.695313 32.066406 C 45.699219 31.472656 45.699219 28.230469 45.699219 27.992188 C 46.957031 29.027344 48.542969 29.09375 50.347656 29.097656 C 52.910156 29.097656 55.011719 28.019531 56.648438 25.867188 C 58.164063 23.902344 58.921875 21.605469 58.925781 18.972656 C 58.929688 16.34375 58.167969 14.042969 56.648438 12.074219 "/>
<g clip-path="url(#clip2)" clip-rule="nonzero">
<path style=" stroke:none;fill-rule:nonzero;fill:rgb(55.299377%,77.598572%,24.699402%);fill-opacity:1;" d="M 173.640625 47.078125 C 174.226563 47.078125 174.703125 46.597656 174.703125 46.011719 C 174.703125 45.425781 174.226563 44.949219 173.640625 44.949219 C 173.050781 44.949219 172.574219 45.425781 172.574219 46.011719 C 172.574219 46.597656 173.050781 47.078125 173.640625 47.078125 "/>
</g>
<g clip-path="url(#clip3)" clip-rule="nonzero">
<path style=" stroke:none;fill-rule:nonzero;fill:rgb(55.299377%,77.598572%,24.699402%);fill-opacity:1;" d="M 170.667969 47.078125 C 171.257813 47.078125 171.734375 46.597656 171.734375 46.011719 C 171.734375 45.425781 171.257813 44.949219 170.667969 44.949219 C 170.082031 44.949219 169.605469 45.425781 169.605469 46.011719 C 169.605469 46.597656 170.082031 47.078125 170.667969 47.078125 "/>
</g>
<g clip-path="url(#clip4)" clip-rule="nonzero">
<path style=" stroke:none;fill-rule:nonzero;fill:rgb(55.299377%,77.598572%,24.699402%);fill-opacity:1;" d="M 163.703125 47.078125 C 164.289063 47.078125 164.765625 46.597656 164.765625 46.011719 C 164.765625 45.425781 164.289063 44.949219 163.703125 44.949219 C 163.117188 44.949219 162.640625 45.425781 162.640625 46.011719 C 162.640625 46.597656 163.117188 47.078125 163.703125 47.078125 "/>
</g>
<g clip-path="url(#clip5)" clip-rule="nonzero">
<path style=" stroke:none;fill-rule:nonzero;fill:rgb(55.299377%,77.598572%,24.699402%);fill-opacity:1;" d="M 156.511719 47.371094 C 160.367188 47.070313 161.496094 43.992188 161.496094 43.992188 C 161.800781 44.296875 162.203125 44.320313 162.449219 44.320313 L 164.921875 44.320313 C 165.6875 44.320313 166.085938 44.046875 166.667969 43.546875 C 167.246094 44.046875 168 44.320313 168.8125 44.320313 L 175.566406 44.320313 C 177.316406 44.320313 178.714844 43.015625 178.742188 41.347656 C 178.742188 41.34375 178.742188 39.105469 178.742188 39.105469 C 178.742188 38.511719 178.261719 38.007813 177.667969 38.007813 C 177.101563 38.007813 176.625 38.46875 176.585938 39.03125 C 176.585938 39.035156 176.585938 39.042969 176.585938 39.046875 L 176.585938 41.34375 C 176.566406 41.839844 176.136719 42.207031 175.566406 42.207031 L 168.8125 42.207031 C 168.242188 42.207031 167.8125 41.839844 167.792969 41.332031 C 167.792969 41.34375 167.792969 39.046875 167.792969 39.046875 C 167.792969 39.042969 167.792969 39.035156 167.789063 39.03125 C 167.753906 38.46875 167.277344 38.007813 166.707031 38.007813 C 166.117188 38.007813 165.632813 38.511719 165.632813 39.105469 L 165.632813 41.175781 C 165.609375 41.722656 165.453125 42.207031 164.921875 42.207031 L 162.792969 42.207031 C 162.265625 42.207031 161.78125 41.722656 161.757813 41.167969 C 161.757813 41.175781 161.757813 39.085938 161.757813 39.085938 C 161.757813 38.492188 161.273438 38.007813 160.683594 38.007813 C 160.085938 38.007813 159.605469 38.492188 159.605469 39.085938 C 159.601563 40.851563 159.605469 40.503906 159.605469 40.5625 C 159.605469 44.082031 157.902344 45.046875 156.367188 45.207031 L 155.925781 45.207031 C 155.332031 45.207031 154.707031 45.417969 154.707031 46.3125 C 154.707031 47.148438 155.449219 47.371094 156.066406 47.371094 "/>
</g>
<path style=" stroke:none;fill-rule:nonzero;fill:rgb(55.299377%,77.598572%,24.699402%);fill-opacity:1;" d="M 191.355469 41.300781 C 191.335938 41.773438 190.957031 42.128906 190.441406 42.179688 C 190.449219 42.035156 190.445313 41.890625 190.445313 41.773438 C 190.445313 41.773438 190.445313 40.863281 190.445313 39.914063 C 190.445313 39.179688 190.105469 38.339844 189.632813 38 C 190.257813 38.003906 190.707031 38.003906 190.707031 38.003906 C 191.316406 38.09375 191.351563 38.507813 191.351563 38.71875 L 191.351563 39.589844 C 191.351563 39.613281 191.355469 39.640625 191.355469 39.664063 Z M 186.597656 41.160156 C 186.597656 40.726563 186.597656 40.34375 186.597656 40.34375 C 186.597656 39.945313 187.109375 39.566406 187.667969 39.566406 C 188.101563 39.566406 188.730469 39.828125 188.730469 40.347656 C 188.730469 40.863281 188.730469 40.863281 188.730469 41.167969 C 188.730469 41.542969 188.648438 41.972656 188.292969 42.183594 L 187.066406 42.183594 C 186.699219 41.976563 186.597656 41.472656 186.597656 41.160156 Z M 190.746094 35.878906 C 190.5 35.878906 189.925781 35.882813 189.925781 35.882813 L 186.023438 35.882813 C 185.417969 35.882813 184.902344 36.375 184.902344 36.980469 C 184.902344 37.5 185.285156 37.886719 185.769531 38.003906 C 185.261719 38.332031 184.867188 39.519531 184.867188 40 C 184.867188 40 184.867188 41.558594 184.867188 42.183594 L 182.574219 42.183594 C 181.992188 42.183594 181.554688 41.808594 181.53125 41.289063 C 181.53125 41.300781 181.53125 35.230469 181.53125 35.230469 C 181.53125 35.226563 181.53125 35.21875 181.53125 35.214844 C 181.492188 34.640625 181.003906 34.191406 180.425781 34.191406 C 179.820313 34.191406 179.328125 34.6875 179.328125 35.292969 L 179.328125 41.132813 C 179.328125 43.070313 180.628906 44.339844 182.574219 44.339844 L 190.3125 44.339844 C 192.105469 44.339844 193.460938 43.007813 193.488281 41.304688 C 193.488281 41.300781 193.488281 39.019531 193.488281 39.019531 C 193.488281 37.921875 193.347656 35.878906 190.746094 35.878906 "/>
<path style=" stroke:none;fill-rule:nonzero;fill:rgb(0%,47.799683%,28.199768%);fill-opacity:1;" d="M 144.027344 35.8125 C 143.429688 35.8125 142.945313 36.296875 142.945313 36.894531 C 142.945313 37.492188 143.429688 37.976563 144.027344 37.976563 C 144.625 37.976563 145.109375 37.492188 145.109375 36.894531 C 145.109375 36.296875 144.625 35.8125 144.027344 35.8125 "/>
<g clip-path="url(#clip6)" clip-rule="nonzero">
<path style=" stroke:none;fill-rule:nonzero;fill:rgb(0%,47.799683%,28.199768%);fill-opacity:1;" d="M 152.859375 44.949219 C 152.273438 44.949219 151.796875 45.429688 151.796875 46.015625 C 151.796875 46.601563 152.273438 47.078125 152.859375 47.078125 C 153.445313 47.078125 153.925781 46.601563 153.925781 46.015625 C 153.925781 45.429688 153.445313 44.949219 152.859375 44.949219 "/>
</g>
<path style=" stroke:none;fill-rule:nonzero;fill:rgb(0%,47.799683%,28.199768%);fill-opacity:1;" d="M 155.835938 37.988281 C 155.265625 37.988281 154.789063 38.453125 154.75 39.015625 C 154.75 39.019531 154.75 39.023438 154.75 39.03125 L 154.75 41.320313 C 154.726563 41.828125 154.296875 42.195313 153.726563 42.195313 L 151.9375 42.195313 C 151.363281 42.195313 150.9375 41.828125 150.914063 41.320313 L 150.914063 39.03125 C 150.914063 39.023438 150.914063 39.019531 150.914063 39.015625 C 150.875 38.453125 150.398438 37.988281 149.828125 37.988281 C 149.234375 37.988281 148.753906 38.496094 148.753906 39.089844 L 148.753906 41.15625 C 148.726563 41.707031 148.238281 42.195313 147.707031 42.195313 L 140.386719 42.195313 C 139.859375 42.195313 139.375 41.707031 139.351563 41.15625 L 139.351563 39.070313 C 139.351563 38.472656 138.867188 37.992188 138.273438 37.992188 C 137.675781 37.992188 137.191406 38.472656 137.191406 39.070313 C 137.191406 40.828125 137.191406 41.148438 137.191406 41.207031 C 137.167969 41.742188 136.695313 42.195313 136.160156 42.195313 L 132.941406 42.195313 C 132.347656 42.195313 131.863281 42.679688 131.863281 43.277344 C 131.863281 43.867188 132.328125 44.308594 132.941406 44.308594 L 136.160156 44.308594 C 136.953125 44.308594 137.699219 44.027344 138.285156 43.515625 C 138.871094 44.027344 139.609375 44.308594 140.386719 44.308594 L 147.707031 44.308594 C 148.472656 44.308594 149.207031 44.035156 149.785156 43.535156 C 150.367188 44.035156 151.125 44.308594 151.9375 44.308594 L 153.726563 44.308594 C 154.570313 44.308594 155.363281 44.011719 155.953125 43.46875 C 156.554688 42.914063 156.894531 42.15625 156.90625 41.332031 C 156.90625 41.328125 156.90625 39.089844 156.90625 39.089844 C 156.90625 38.496094 156.425781 37.988281 155.835938 37.988281 "/>
<path style=" stroke:none;fill-rule:evenodd;fill:rgb(92.89856%,10.998535%,14.099121%);fill-opacity:1;" d="M 128.179688 42.183594 C 127.621094 42.183594 127.167969 41.730469 127.167969 41.171875 C 127.167969 40.613281 127.621094 40.15625 128.179688 40.15625 C 128.738281 40.15625 129.191406 40.613281 129.191406 41.171875 C 129.191406 41.730469 128.738281 42.183594 128.179688 42.183594 Z M 129.664063 38.363281 C 129.191406 38.105469 128.664063 37.972656 128.128906 37.972656 C 126.378906 37.972656 124.957031 39.382813 124.957031 41.117188 C 124.957031 41.957031 125.285156 42.753906 125.886719 43.363281 C 126.488281 43.976563 127.289063 44.3125 128.128906 44.3125 C 128.132813 44.3125 129.679688 44.3125 129.679688 44.3125 C 130.570313 44.3125 131.265625 43.597656 131.265625 42.691406 L 131.265625 41.03125 C 131.269531 40.898438 131.300781 39.292969 129.664063 38.363281 "/>
<path style=" stroke:none;fill-rule:nonzero;fill:rgb(55.299377%,77.598572%,24.699402%);fill-opacity:1;" d="M 131.792969 36.5 L 131.71875 36.300781 L 131.542969 36.417969 C 131.257813 36.605469 130.960938 36.683594 130.511719 36.808594 C 130.296875 36.867188 130.054688 36.933594 129.757813 37.027344 C 128.730469 37.347656 128.648438 38.472656 128.648438 38.519531 L 128.640625 38.652344 L 128.765625 38.6875 C 129.292969 38.851563 130.609375 38.789063 131.347656 38.085938 C 132.101563 37.371094 131.804688 36.535156 131.792969 36.5 "/>
<path style=" stroke:none;fill-rule:nonzero;fill:rgb(100%,100%,100%);fill-opacity:1;" d="M 128.839844 38.527344 C 128.839844 38.527344 129.386719 37.78125 130.207031 37.589844 C 131.125 37.375 131.609375 36.765625 131.617188 36.582031 C 131.617188 36.582031 131.558594 37.203125 130.300781 37.621094 C 130.089844 37.691406 129.523438 37.785156 128.839844 38.527344 "/>
</g>
</svg>
