<?xml version="1.0" encoding="UTF-8"?>
<svg xmlns="http://www.w3.org/2000/svg" xmlns:xlink="http://www.w3.org/1999/xlink" width="365.86pt" height="72.83pt" viewBox="0 0 365.86 72.83" version="1.1">
<defs>
<clipPath id="clip1">
  <path d="M 0 0 L 365.859375 0 L 365.859375 72.828125 L 0 72.828125 Z M 0 0 "/>
</clipPath>
<clipPath id="clip2">
  <path d="M 0 64 L 352 64 L 352 72.828125 L 0 72.828125 Z M 0 64 "/>
</clipPath>
</defs>
<g id="surface1">
<g clip-path="url(#clip1)" clip-rule="nonzero">
<path style=" stroke:none;fill-rule:nonzero;fill:rgb(0%,61.199951%,57.598877%);fill-opacity:1;" d="M 327.472656 72.828125 L 0.0898438 72.828125 L 0.0898438 38.390625 C 0.0898438 17.183594 17.285156 0 38.488281 0 L 365.867188 0 L 365.867188 34.4375 C 365.867188 55.628906 348.679688 72.828125 327.472656 72.828125 "/>
</g>
<path style=" stroke:none;fill-rule:nonzero;fill:rgb(100%,100%,100%);fill-opacity:1;" d="M 62.28125 45.8125 L 63.15625 44.097656 C 65.132813 39.042969 67.070313 33.992188 69.058594 28.96875 C 69.472656 27.917969 69.964844 26.871094 70.625 25.980469 C 72.535156 23.363281 76.199219 23.335938 78.15625 25.917969 C 78.859375 26.847656 79.375 27.945313 79.804688 29.042969 C 81.808594 34.070313 83.738281 39.125 85.722656 44.164063 C 85.953125 44.75 86.320313 45.277344 86.882813 46.308594 C 87.371094 45.054688 87.71875 44.320313 87.957031 43.550781 C 90.132813 36.546875 92.292969 29.542969 94.46875 22.539063 L 94.90625 21.257813 C 95.71875 19.488281 97.609375 18.625 99.386719 19.175781 C 101.285156 19.765625 102.445313 21.570313 101.933594 23.535156 C 101.273438 26.101563 100.4375 28.625 99.652344 31.152344 C 97.988281 36.53125 96.320313 41.925781 94.636719 47.304688 C 93.484375 50.996094 90.859375 53.144531 87.328125 53.328125 C 83.628906 53.523438 80.625 51.574219 79.160156 47.960938 C 77.660156 44.253906 76.21875 40.511719 74.746094 36.78125 L 74.347656 36.324219 L 73.582031 37.957031 C 72.332031 41.164063 71.109375 44.386719 69.839844 47.582031 C 68.300781 51.480469 65.382813 53.496094 61.585938 53.328125 C 57.914063 53.167969 55.363281 51.023438 54.132813 47.054688 C 51.820313 39.621094 49.511719 32.1875 47.226563 24.75 C 46.984375 23.953125 46.777344 23.089844 46.835938 22.277344 C 46.972656 20.535156 48.453125 19.175781 50.195313 19.019531 C 51.960938 18.863281 53.515625 19.894531 54.132813 21.820313 C 55.511719 26.125 56.820313 30.433594 58.164063 34.738281 C 59.132813 37.867188 60.085938 40.996094 61.0625 44.113281 L 61.738281 45.761719 "/>
<path style=" stroke:none;fill-rule:nonzero;fill:rgb(100%,100%,100%);fill-opacity:1;" d="M 123.664063 25.878906 C 122.480469 25.980469 121.289063 26.019531 120.128906 26.21875 C 115.246094 27.121094 111.890625 30.800781 111.667969 35.433594 C 111.410156 40.578125 114.082031 44.464844 118.988281 45.867188 C 122.648438 46.898438 126.269531 46.664063 129.679688 44.871094 C 133.382813 42.933594 135.390625 39.007813 134.894531 34.855469 C 134.34375 30.367188 131.921875 27.566406 127.511719 26.464844 C 126.261719 26.164063 124.960938 26.074219 123.664063 25.878906 M 134.46875 48.785156 C 131.8125 51.011719 129.011719 52.460938 125.785156 53.078125 C 116.328125 54.859375 107.164063 49.386719 104.945313 40.578125 C 102.386719 30.433594 108.722656 21.019531 119.238281 19.359375 C 123.449219 18.679688 127.597656 18.941406 131.589844 20.417969 C 138.035156 22.8125 141.472656 27.59375 141.859375 34.386719 C 142.125 39.046875 141.976563 43.746094 141.957031 48.429688 C 141.949219 51.375 140.789063 53.023438 138.71875 53.207031 C 136.472656 53.417969 135.097656 52.070313 134.46875 48.785156 "/>
<path style=" stroke:none;fill-rule:nonzero;fill:rgb(100%,100%,100%);fill-opacity:1;" d="M 224.511719 46.441406 C 225.316406 46.324219 226.441406 46.246094 227.535156 45.996094 C 232.324219 44.921875 235.527344 41.113281 235.625 36.453125 C 235.722656 31.609375 232.804688 27.539063 227.882813 26.558594 C 225.375 26.046875 222.546875 26.023438 220.074219 26.636719 C 213.863281 28.15625 210.890625 34.621094 213.523438 40.339844 C 215.589844 44.855469 219.574219 46.230469 224.511719 46.441406 M 224 53.195313 C 216.90625 53.050781 210.925781 50.65625 207.378906 44.136719 C 201.632813 33.5625 208.371094 21.046875 220.625 19.347656 C 226.128906 18.574219 231.320313 19.398438 235.945313 22.632813 C 241.488281 26.519531 244.039063 33.273438 242.378906 40.105469 C 240.613281 47.359375 235.625 51.296875 228.535156 52.855469 C 227.824219 53.011719 227.097656 53.128906 226.363281 53.183594 C 225.585938 53.234375 224.792969 53.195313 224 53.195313 "/>
<path style=" stroke:none;fill-rule:nonzero;fill:rgb(100%,100%,100%);fill-opacity:1;" d="M 187.996094 19.214844 C 191.121094 19.371094 193.207031 19.410156 195.28125 19.632813 C 196.269531 19.726563 197.453125 19.910156 198.128906 20.511719 C 198.90625 21.203125 199.695313 22.460938 199.613281 23.402344 C 199.535156 24.359375 198.554688 25.445313 197.679688 26.035156 C 196.972656 26.519531 195.839844 26.441406 194.890625 26.441406 C 190.890625 26.464844 186.886719 26.296875 182.894531 26.464844 C 180.269531 26.570313 179.167969 27.527344 179.097656 29.03125 C 179.011719 30.65625 180.046875 31.609375 182.695313 32.09375 C 185.636719 32.632813 188.621094 32.960938 191.546875 33.5625 C 193.359375 33.925781 195.152344 34.503906 196.859375 35.222656 C 199.816406 36.453125 201.78125 38.625 202.035156 41.953125 C 202.296875 45.472656 201.121094 48.390625 198.160156 50.460938 C 195.203125 52.515625 191.792969 53.078125 188.324219 53.066406 C 184.214844 53.050781 180.105469 52.75 175.996094 52.515625 C 175.230469 52.476563 174.429688 52.226563 173.730469 51.898438 C 172.246094 51.191406 171.570313 49.949219 171.851563 48.300781 C 172.132813 46.675781 173.21875 45.785156 174.777344 45.722656 C 176.511719 45.644531 178.265625 45.851563 180.007813 45.890625 C 183.277344 45.96875 186.550781 46.113281 189.8125 46.007813 C 191.121094 45.96875 192.515625 45.550781 193.671875 44.9375 C 195.4375 44.007813 195.378906 41.835938 193.523438 41.140625 C 191.484375 40.394531 189.28125 40.09375 187.140625 39.660156 C 184.160156 39.070313 181.085938 38.796875 178.207031 37.894531 C 173.847656 36.53125 171.945313 33.652344 171.9375 29.320313 C 171.917969 25.027344 174.050781 21.949219 178.160156 20.394531 C 179 20.078125 179.882813 19.765625 180.765625 19.6875 C 183.507813 19.4375 186.269531 19.320313 187.996094 19.214844 "/>
<path style=" stroke:none;fill-rule:nonzero;fill:rgb(100%,100%,100%);fill-opacity:1;" d="M 302.90625 19.242188 C 305.210938 19.386719 307.523438 19.449219 309.824219 19.6875 C 311.371094 19.84375 312.851563 20.367188 313.472656 22.015625 C 314.3125 24.226563 312.847656 26.28125 310.246094 26.414063 C 308.339844 26.519531 306.414063 26.296875 304.503906 26.296875 C 301.851563 26.308594 299.207031 26.363281 296.5625 26.46875 C 295.902344 26.492188 295.109375 26.609375 294.640625 27.003906 C 293.964844 27.554688 293.132813 28.390625 293.121094 29.136719 C 293.101563 29.882813 293.835938 31.035156 294.515625 31.324219 C 296.046875 31.964844 297.761719 32.1875 299.402344 32.554688 C 303.03125 33.363281 306.757813 33.835938 310.253906 35.027344 C 314.777344 36.570313 316.523438 39.867188 315.882813 44.410156 C 315.445313 47.582031 313.730469 49.988281 310.84375 51.125 C 308.363281 52.109375 305.660156 52.878906 303.03125 52.972656 C 298.539063 53.128906 294.023438 52.722656 289.519531 52.460938 C 288.007813 52.371094 286.660156 51.730469 286 50.199219 C 285.109375 48.144531 286.328125 45.945313 288.644531 45.746094 C 290.425781 45.589844 292.242188 45.851563 294.042969 45.90625 C 297.25 45.96875 300.46875 46.113281 303.675781 46.023438 C 304.980469 45.984375 306.371094 45.574219 307.546875 44.976563 C 309.390625 44.03125 309.324219 41.808594 307.386719 41.085938 C 305.40625 40.367188 303.246094 40.078125 301.15625 39.660156 C 298.179688 39.070313 295.105469 38.808594 292.222656 37.921875 C 287.800781 36.546875 285.800781 33.546875 285.828125 29.214844 C 285.851563 25.027344 287.996094 21.625 292.214844 20.445313 C 295.632813 19.503906 299.285156 19.359375 302.835938 18.875 "/>
<path style=" stroke:none;fill-rule:nonzero;fill:rgb(100%,100%,100%);fill-opacity:1;" d="M 281.347656 40.773438 C 281.347656 43.484375 281.398438 46.191406 281.332031 48.902344 C 281.269531 51.375 279.996094 53.011719 278.113281 53.261719 C 275.671875 53.574219 273.925781 51.859375 273.886719 48.941406 C 273.824219 44.375 273.878906 39.804688 273.851563 35.238281 C 273.847656 34.28125 273.773438 33.3125 273.617188 32.371094 C 273.113281 29.332031 271.351563 27.1875 268.320313 26.742188 C 265.816406 26.363281 263.144531 26.347656 260.652344 26.769531 C 257.433594 27.316406 255.636719 29.636719 255.246094 32.90625 C 255.121094 33.96875 255.082031 35.054688 255.074219 36.113281 C 255.050781 40.511719 255.109375 44.910156 255.011719 49.320313 C 254.949219 51.714844 253.464844 53.222656 251.449219 53.289063 C 249.367188 53.339844 247.726563 51.964844 247.6875 49.542969 C 247.601563 43.40625 247.449219 37.226563 247.90625 31.113281 C 248.269531 26.242188 251.378906 22.855469 255.855469 20.96875 C 261.398438 18.640625 267.097656 18.5625 272.6875 20.761719 C 278.242188 22.945313 281.050781 27.238281 281.324219 33.167969 C 281.445313 35.695313 281.347656 38.234375 281.347656 40.773438 "/>
<path style=" stroke:none;fill-rule:nonzero;fill:rgb(100%,100%,100%);fill-opacity:1;" d="M 160.59375 46.101563 C 161.550781 46.007813 162.507813 45.890625 163.460938 45.839844 C 165.65625 45.722656 167.074219 46.652344 167.460938 48.417969 C 167.835938 50.171875 166.871094 51.714844 164.789063 52.34375 C 161.015625 53.457031 157.199219 53.46875 153.488281 52.109375 C 149.691406 50.683594 147.695313 47.710938 147.621094 43.785156 C 147.464844 35.210938 147.507813 26.625 147.578125 18.050781 C 147.605469 15.09375 149.359375 13.78125 152.269531 14.265625 C 154.035156 14.554688 154.523438 15.996094 154.742188 17.5 C 155.222656 20.667969 155.195313 20.667969 158.5 20.679688 C 160.191406 20.679688 161.898438 20.601563 163.574219 20.773438 C 165.902344 20.996094 167.113281 22.410156 166.929688 24.410156 C 166.78125 26.140625 165.617188 27.226563 163.394531 27.355469 C 161.09375 27.5 158.769531 27.488281 156.464844 27.421875 C 155.175781 27.382813 154.804688 27.878906 154.824219 29.097656 C 154.875 32.984375 154.789063 36.886719 154.863281 40.773438 C 154.941406 45.078125 156.242188 46.246094 160.59375 46.101563 "/>
<g clip-path="url(#clip2)" clip-rule="nonzero">
<path style=" stroke:none;fill-rule:nonzero;fill:rgb(88.999939%,13.299561%,14.099121%);fill-opacity:1;" d="M 0 64.441406 L 351.066406 64.441406 C 351.066406 64.441406 343.660156 72.386719 327.472656 72.828125 L 0.0898438 72.828125 "/>
</g>
</g>
</svg>
